<mxfile host="app.diagrams.net" modified="2021-09-12T07:05:16.642Z" agent="5.0 (X11)" etag="vBFgyHHtDX1Q7bPOZoAF" version="15.1.4" type="github" pages="2">
  <diagram id="IInxRaPjDB1M5F9Ouohi" name="DataPath">
    <mxGraphModel dx="710" dy="708" grid="1" gridSize="10" guides="1" tooltips="1" connect="1" arrows="1" fold="1" page="1" pageScale="1" pageWidth="850" pageHeight="1100" math="0" shadow="0">
      <root>
        <mxCell id="0" />
        <mxCell id="1" parent="0" />
        <mxCell id="6ykBK7ExuZMdlc3cMcjY-9" style="edgeStyle=orthogonalEdgeStyle;rounded=0;orthogonalLoop=1;jettySize=auto;html=1;fontColor=#0000FF;strokeColor=#0000FF;" parent="1" source="6ykBK7ExuZMdlc3cMcjY-1" target="6ykBK7ExuZMdlc3cMcjY-7" edge="1">
          <mxGeometry relative="1" as="geometry" />
        </mxCell>
        <mxCell id="6ykBK7ExuZMdlc3cMcjY-1" value="" style="rounded=0;whiteSpace=wrap;html=1;" parent="1" vertex="1">
          <mxGeometry x="120" y="270" width="140" height="70" as="geometry" />
        </mxCell>
        <mxCell id="6ykBK7ExuZMdlc3cMcjY-2" value="&lt;div align=&quot;center&quot;&gt;Instruction&lt;/div&gt;&lt;div align=&quot;center&quot;&gt;Memory&lt;br&gt;&lt;/div&gt;" style="text;html=1;strokeColor=none;fillColor=none;align=center;verticalAlign=middle;whiteSpace=wrap;rounded=0;" parent="1" vertex="1">
          <mxGeometry x="155" y="295" width="70" height="20" as="geometry" />
        </mxCell>
        <mxCell id="6ykBK7ExuZMdlc3cMcjY-4" value="Address" style="text;html=1;strokeColor=none;fillColor=none;align=center;verticalAlign=middle;whiteSpace=wrap;rounded=0;fontColor=#0000FF;" parent="1" vertex="1">
          <mxGeometry x="170" y="270" width="40" height="20" as="geometry" />
        </mxCell>
        <mxCell id="6ykBK7ExuZMdlc3cMcjY-6" value="Instruction" style="text;html=1;strokeColor=none;fillColor=none;align=center;verticalAlign=middle;whiteSpace=wrap;rounded=0;fontColor=#0000FF;" parent="1" vertex="1">
          <mxGeometry x="170" y="320" width="40" height="20" as="geometry" />
        </mxCell>
        <mxCell id="6ykBK7ExuZMdlc3cMcjY-48" style="edgeStyle=none;rounded=0;jumpStyle=arc;jumpSize=100;orthogonalLoop=1;jettySize=auto;html=1;exitX=1;exitY=0.5;exitDx=0;exitDy=0;fontColor=#0000FF;startArrow=oval;startFill=1;endArrow=classic;endFill=1;strokeColor=#0000FF;entryX=0;entryY=0.5;entryDx=0;entryDy=0;" parent="1" source="6ykBK7ExuZMdlc3cMcjY-7" target="6ykBK7ExuZMdlc3cMcjY-44" edge="1">
          <mxGeometry relative="1" as="geometry">
            <mxPoint x="340" y="445" as="targetPoint" />
          </mxGeometry>
        </mxCell>
        <mxCell id="6ykBK7ExuZMdlc3cMcjY-7" value="" style="rounded=0;whiteSpace=wrap;html=1;" parent="1" vertex="1">
          <mxGeometry x="120" y="410" width="140" height="70" as="geometry" />
        </mxCell>
        <mxCell id="6ykBK7ExuZMdlc3cMcjY-8" value="Decoder" style="text;html=1;strokeColor=none;fillColor=none;align=center;verticalAlign=middle;whiteSpace=wrap;rounded=0;" parent="1" vertex="1">
          <mxGeometry x="155" y="435" width="70" height="20" as="geometry" />
        </mxCell>
        <mxCell id="6ykBK7ExuZMdlc3cMcjY-10" value="" style="rounded=0;whiteSpace=wrap;html=1;" parent="1" vertex="1">
          <mxGeometry x="350" y="270" width="140" height="110" as="geometry" />
        </mxCell>
        <mxCell id="6ykBK7ExuZMdlc3cMcjY-11" value="Register file" style="text;html=1;strokeColor=none;fillColor=none;align=center;verticalAlign=middle;whiteSpace=wrap;rounded=0;" parent="1" vertex="1">
          <mxGeometry x="387.5" y="310" width="65" height="20" as="geometry" />
        </mxCell>
        <mxCell id="6ykBK7ExuZMdlc3cMcjY-13" style="edgeStyle=orthogonalEdgeStyle;rounded=0;orthogonalLoop=1;jettySize=auto;html=1;exitX=0.5;exitY=0;exitDx=0;exitDy=0;entryX=0.5;entryY=0;entryDx=0;entryDy=0;fontColor=#0000FF;strokeColor=#0000FF;" parent="1" source="6ykBK7ExuZMdlc3cMcjY-12" target="6ykBK7ExuZMdlc3cMcjY-4" edge="1">
          <mxGeometry relative="1" as="geometry">
            <Array as="points">
              <mxPoint x="380" y="240" />
              <mxPoint x="190" y="240" />
            </Array>
          </mxGeometry>
        </mxCell>
        <mxCell id="6ykBK7ExuZMdlc3cMcjY-12" value="PC(x1)" style="text;html=1;strokeColor=none;fillColor=none;align=center;verticalAlign=middle;whiteSpace=wrap;rounded=0;fontColor=#0000FF;" parent="1" vertex="1">
          <mxGeometry x="360" y="270" width="40" height="20" as="geometry" />
        </mxCell>
        <mxCell id="6ykBK7ExuZMdlc3cMcjY-14" value="Write Data" style="text;html=1;strokeColor=none;fillColor=none;align=center;verticalAlign=middle;whiteSpace=wrap;rounded=0;fontColor=#0000FF;" parent="1" vertex="1">
          <mxGeometry x="350" y="350" width="40" height="20" as="geometry" />
        </mxCell>
        <mxCell id="6ykBK7ExuZMdlc3cMcjY-25" style="edgeStyle=orthogonalEdgeStyle;rounded=0;orthogonalLoop=1;jettySize=auto;html=1;exitX=1;exitY=0;exitDx=0;exitDy=0;fontColor=#0000FF;strokeColor=#0000FF;" parent="1" source="6ykBK7ExuZMdlc3cMcjY-15" edge="1">
          <mxGeometry relative="1" as="geometry">
            <mxPoint x="580" y="290" as="targetPoint" />
            <Array as="points">
              <mxPoint x="510" y="290" />
              <mxPoint x="510" y="290" />
            </Array>
          </mxGeometry>
        </mxCell>
        <mxCell id="6ykBK7ExuZMdlc3cMcjY-15" value="Read RS1" style="text;html=1;strokeColor=none;fillColor=none;align=center;verticalAlign=middle;whiteSpace=wrap;rounded=0;fontColor=#0000FF;" parent="1" vertex="1">
          <mxGeometry x="450" y="290" width="40" height="20" as="geometry" />
        </mxCell>
        <mxCell id="6ykBK7ExuZMdlc3cMcjY-26" style="edgeStyle=orthogonalEdgeStyle;rounded=0;orthogonalLoop=1;jettySize=auto;html=1;exitX=1;exitY=0.5;exitDx=0;exitDy=0;fontColor=#0000FF;strokeColor=#0000FF;" parent="1" source="6ykBK7ExuZMdlc3cMcjY-16" edge="1">
          <mxGeometry relative="1" as="geometry">
            <mxPoint x="540" y="350" as="targetPoint" />
          </mxGeometry>
        </mxCell>
        <mxCell id="6ykBK7ExuZMdlc3cMcjY-16" value="Read RS2" style="text;html=1;strokeColor=none;fillColor=none;align=center;verticalAlign=middle;whiteSpace=wrap;rounded=0;fontColor=#0000FF;" parent="1" vertex="1">
          <mxGeometry x="450" y="340" width="40" height="20" as="geometry" />
        </mxCell>
        <mxCell id="6ykBK7ExuZMdlc3cMcjY-17" value="&lt;font color=&quot;#ff0000&quot;&gt;PC Increment&lt;/font&gt;" style="text;html=1;strokeColor=none;fillColor=none;align=center;verticalAlign=middle;whiteSpace=wrap;rounded=0;fontColor=#0000FF;" parent="1" vertex="1">
          <mxGeometry x="400" y="350" width="40" height="20" as="geometry" />
        </mxCell>
        <mxCell id="6ykBK7ExuZMdlc3cMcjY-18" value="" style="endArrow=none;html=1;fontColor=#0000FF;" parent="1" edge="1">
          <mxGeometry width="50" height="50" relative="1" as="geometry">
            <mxPoint x="580" y="307" as="sourcePoint" />
            <mxPoint x="580" y="257" as="targetPoint" />
          </mxGeometry>
        </mxCell>
        <mxCell id="6ykBK7ExuZMdlc3cMcjY-19" value="" style="endArrow=none;html=1;fontColor=#0000FF;" parent="1" edge="1">
          <mxGeometry width="50" height="50" relative="1" as="geometry">
            <mxPoint x="580" y="375" as="sourcePoint" />
            <mxPoint x="580" y="325" as="targetPoint" />
          </mxGeometry>
        </mxCell>
        <mxCell id="6ykBK7ExuZMdlc3cMcjY-20" value="" style="endArrow=none;html=1;fontColor=#0000FF;strokeColor=#000000;" parent="1" edge="1">
          <mxGeometry width="50" height="50" relative="1" as="geometry">
            <mxPoint x="590" y="315" as="sourcePoint" />
            <mxPoint x="580" y="305" as="targetPoint" />
          </mxGeometry>
        </mxCell>
        <mxCell id="6ykBK7ExuZMdlc3cMcjY-21" value="" style="endArrow=none;html=1;fontColor=#0000FF;strokeColor=#000000;" parent="1" edge="1">
          <mxGeometry width="50" height="50" relative="1" as="geometry">
            <mxPoint x="580" y="325" as="sourcePoint" />
            <mxPoint x="590" y="315" as="targetPoint" />
          </mxGeometry>
        </mxCell>
        <mxCell id="6ykBK7ExuZMdlc3cMcjY-22" value="" style="endArrow=none;html=1;fontColor=#0000FF;" parent="1" edge="1">
          <mxGeometry width="50" height="50" relative="1" as="geometry">
            <mxPoint x="640" y="345" as="sourcePoint" />
            <mxPoint x="640" y="285" as="targetPoint" />
          </mxGeometry>
        </mxCell>
        <mxCell id="6ykBK7ExuZMdlc3cMcjY-23" value="" style="endArrow=none;html=1;fontColor=#0000FF;strokeColor=#000000;" parent="1" edge="1">
          <mxGeometry width="50" height="50" relative="1" as="geometry">
            <mxPoint x="580" y="375" as="sourcePoint" />
            <mxPoint x="640" y="345" as="targetPoint" />
          </mxGeometry>
        </mxCell>
        <mxCell id="6ykBK7ExuZMdlc3cMcjY-24" value="" style="endArrow=none;html=1;fontColor=#0000FF;strokeColor=#000000;" parent="1" edge="1">
          <mxGeometry width="50" height="50" relative="1" as="geometry">
            <mxPoint x="640" y="285" as="sourcePoint" />
            <mxPoint x="580" y="255" as="targetPoint" />
          </mxGeometry>
        </mxCell>
        <mxCell id="6ykBK7ExuZMdlc3cMcjY-28" value="" style="rounded=0;whiteSpace=wrap;html=1;fontColor=#0000FF;" parent="1" vertex="1">
          <mxGeometry x="730" y="230" width="150" height="155" as="geometry" />
        </mxCell>
        <mxCell id="6ykBK7ExuZMdlc3cMcjY-31" style="edgeStyle=orthogonalEdgeStyle;rounded=0;orthogonalLoop=1;jettySize=auto;html=1;exitX=1;exitY=0.5;exitDx=0;exitDy=0;fontColor=#0000FF;strokeColor=#0000FF;" parent="1" source="6ykBK7ExuZMdlc3cMcjY-29" edge="1">
          <mxGeometry relative="1" as="geometry">
            <mxPoint x="580" y="353" as="targetPoint" />
          </mxGeometry>
        </mxCell>
        <mxCell id="6ykBK7ExuZMdlc3cMcjY-29" value="" style="ellipse;whiteSpace=wrap;html=1;fontColor=#0000FF;" parent="1" vertex="1">
          <mxGeometry x="540" y="330" width="20" height="45" as="geometry" />
        </mxCell>
        <mxCell id="6ykBK7ExuZMdlc3cMcjY-34" value="" style="endArrow=classic;html=1;fontColor=#0000FF;strokeColor=#0000FF;entryX=0;entryY=0.5;entryDx=0;entryDy=0;" parent="1" target="6ykBK7ExuZMdlc3cMcjY-36" edge="1">
          <mxGeometry width="50" height="50" relative="1" as="geometry">
            <mxPoint x="640" y="320" as="sourcePoint" />
            <mxPoint x="730" y="316" as="targetPoint" />
          </mxGeometry>
        </mxCell>
        <mxCell id="6ykBK7ExuZMdlc3cMcjY-35" value="Data Memory" style="text;html=1;strokeColor=none;fillColor=none;align=center;verticalAlign=middle;whiteSpace=wrap;rounded=0;" parent="1" vertex="1">
          <mxGeometry x="766.25" y="280" width="77.5" height="20" as="geometry" />
        </mxCell>
        <mxCell id="6ykBK7ExuZMdlc3cMcjY-36" value="Address" style="text;html=1;strokeColor=none;fillColor=none;align=center;verticalAlign=middle;whiteSpace=wrap;rounded=0;fontColor=#0000FF;" parent="1" vertex="1">
          <mxGeometry x="732.5" y="310" width="40" height="20" as="geometry" />
        </mxCell>
        <mxCell id="6ykBK7ExuZMdlc3cMcjY-39" value="" style="edgeStyle=orthogonalEdgeStyle;rounded=0;orthogonalLoop=1;jettySize=auto;html=1;fontColor=#0000FF;endArrow=classic;endFill=1;strokeColor=#0000FF;" parent="1" source="6ykBK7ExuZMdlc3cMcjY-37" target="6ykBK7ExuZMdlc3cMcjY-38" edge="1">
          <mxGeometry relative="1" as="geometry" />
        </mxCell>
        <mxCell id="6ykBK7ExuZMdlc3cMcjY-37" value="Read Data" style="text;html=1;strokeColor=none;fillColor=none;align=center;verticalAlign=middle;whiteSpace=wrap;rounded=0;fontColor=#0000FF;" parent="1" vertex="1">
          <mxGeometry x="840" y="310" width="40" height="20" as="geometry" />
        </mxCell>
        <mxCell id="6ykBK7ExuZMdlc3cMcjY-49" style="edgeStyle=none;rounded=0;jumpStyle=arc;jumpSize=15;orthogonalLoop=1;jettySize=auto;html=1;exitX=1;exitY=0.5;exitDx=0;exitDy=0;fontColor=#0000FF;startArrow=oval;startFill=1;endArrow=classic;endFill=1;strokeColor=#0000FF;entryX=0;entryY=0.75;entryDx=0;entryDy=0;" parent="1" source="6ykBK7ExuZMdlc3cMcjY-38" target="6ykBK7ExuZMdlc3cMcjY-10" edge="1">
          <mxGeometry relative="1" as="geometry">
            <mxPoint x="300" y="510" as="targetPoint" />
            <Array as="points">
              <mxPoint x="980" y="320" />
              <mxPoint x="980" y="510" />
              <mxPoint x="630" y="510" />
              <mxPoint x="320" y="510" />
              <mxPoint x="320" y="353" />
            </Array>
          </mxGeometry>
        </mxCell>
        <mxCell id="6ykBK7ExuZMdlc3cMcjY-38" value="" style="ellipse;whiteSpace=wrap;html=1;fontColor=#0000FF;" parent="1" vertex="1">
          <mxGeometry x="920" y="290" width="20" height="60" as="geometry" />
        </mxCell>
        <mxCell id="6ykBK7ExuZMdlc3cMcjY-40" value="" style="endArrow=classic;html=1;fontColor=#0000FF;strokeColor=#0000FF;entryX=0.5;entryY=1;entryDx=0;entryDy=0;rounded=0;startArrow=oval;startFill=1;" parent="1" target="6ykBK7ExuZMdlc3cMcjY-38" edge="1">
          <mxGeometry width="50" height="50" relative="1" as="geometry">
            <mxPoint x="670" y="320" as="sourcePoint" />
            <mxPoint x="910" y="420" as="targetPoint" />
            <Array as="points">
              <mxPoint x="670" y="410" />
              <mxPoint x="930" y="410" />
            </Array>
          </mxGeometry>
        </mxCell>
        <mxCell id="6ykBK7ExuZMdlc3cMcjY-42" value="Write Data" style="text;html=1;strokeColor=none;fillColor=none;align=center;verticalAlign=middle;whiteSpace=wrap;rounded=0;fontColor=#0000FF;" parent="1" vertex="1">
          <mxGeometry x="785" y="240" width="40" height="20" as="geometry" />
        </mxCell>
        <mxCell id="6ykBK7ExuZMdlc3cMcjY-43" value="" style="endArrow=classic;html=1;fontColor=#0000FF;strokeColor=#0000FF;entryX=0.5;entryY=0;entryDx=0;entryDy=0;rounded=0;startArrow=oval;startFill=1;" parent="1" target="6ykBK7ExuZMdlc3cMcjY-28" edge="1">
          <mxGeometry width="50" height="50" relative="1" as="geometry">
            <mxPoint x="530" y="290" as="sourcePoint" />
            <mxPoint x="550" y="340" as="targetPoint" />
            <Array as="points">
              <mxPoint x="530" y="150" />
              <mxPoint x="805" y="150" />
            </Array>
          </mxGeometry>
        </mxCell>
        <mxCell id="6ykBK7ExuZMdlc3cMcjY-50" style="edgeStyle=none;rounded=0;jumpStyle=arc;jumpSize=15;orthogonalLoop=1;jettySize=auto;html=1;exitX=1;exitY=0.5;exitDx=0;exitDy=0;entryX=0.5;entryY=1;entryDx=0;entryDy=0;fontColor=#0000FF;startArrow=oval;startFill=1;endArrow=classic;endFill=1;strokeColor=#0000FF;" parent="1" source="6ykBK7ExuZMdlc3cMcjY-44" target="6ykBK7ExuZMdlc3cMcjY-29" edge="1">
          <mxGeometry relative="1" as="geometry">
            <Array as="points">
              <mxPoint x="550" y="445" />
            </Array>
          </mxGeometry>
        </mxCell>
        <mxCell id="6ykBK7ExuZMdlc3cMcjY-44" value="" style="rounded=0;whiteSpace=wrap;html=1;" parent="1" vertex="1">
          <mxGeometry x="350" y="410" width="140" height="70" as="geometry" />
        </mxCell>
        <mxCell id="6ykBK7ExuZMdlc3cMcjY-45" value="Immediate Generation" style="text;html=1;strokeColor=none;fillColor=none;align=center;verticalAlign=middle;whiteSpace=wrap;rounded=0;" parent="1" vertex="1">
          <mxGeometry x="385" y="435" width="70" height="20" as="geometry" />
        </mxCell>
        <mxCell id="6ykBK7ExuZMdlc3cMcjY-51" value="&lt;h1&gt;DataPath&lt;/h1&gt;&lt;p&gt;&lt;br&gt;&lt;/p&gt;" style="text;html=1;strokeColor=none;fillColor=none;spacing=5;spacingTop=-20;whiteSpace=wrap;overflow=hidden;rounded=0;fontColor=#0000FF;" parent="1" vertex="1">
          <mxGeometry x="210" y="160" width="110" height="40" as="geometry" />
        </mxCell>
      </root>
    </mxGraphModel>
  </diagram>
  <diagram id="mDF_yeFzmRtgqxnm2Uce" name="RegisterFile">
    <mxGraphModel dx="835" dy="833" grid="1" gridSize="10" guides="1" tooltips="1" connect="1" arrows="1" fold="1" page="1" pageScale="1" pageWidth="850" pageHeight="1100" math="0" shadow="0">
      <root>
        <mxCell id="HeyO3wFch_CCyxyWLXWr-0" />
        <mxCell id="HeyO3wFch_CCyxyWLXWr-1" parent="HeyO3wFch_CCyxyWLXWr-0" />
        <mxCell id="HeyO3wFch_CCyxyWLXWr-6" value="x0" style="rounded=0;whiteSpace=wrap;html=1;" vertex="1" parent="HeyO3wFch_CCyxyWLXWr-1">
          <mxGeometry x="515" y="120" width="120" height="20" as="geometry" />
        </mxCell>
        <mxCell id="HeyO3wFch_CCyxyWLXWr-11" style="edgeStyle=orthogonalEdgeStyle;rounded=0;orthogonalLoop=1;jettySize=auto;html=1;exitX=0.5;exitY=1;exitDx=0;exitDy=0;" edge="1" parent="HeyO3wFch_CCyxyWLXWr-1" source="HeyO3wFch_CCyxyWLXWr-7">
          <mxGeometry relative="1" as="geometry">
            <mxPoint x="575" y="204" as="targetPoint" />
          </mxGeometry>
        </mxCell>
        <mxCell id="HeyO3wFch_CCyxyWLXWr-7" value="x1" style="rounded=0;whiteSpace=wrap;html=1;" vertex="1" parent="HeyO3wFch_CCyxyWLXWr-1">
          <mxGeometry x="515" y="154" width="120" height="20" as="geometry" />
        </mxCell>
        <mxCell id="HeyO3wFch_CCyxyWLXWr-8" value="" style="endArrow=none;html=1;rounded=0;" edge="1" parent="HeyO3wFch_CCyxyWLXWr-1">
          <mxGeometry width="50" height="50" relative="1" as="geometry">
            <mxPoint x="475" y="204" as="sourcePoint" />
            <mxPoint x="595" y="204" as="targetPoint" />
            <Array as="points">
              <mxPoint x="515" y="204" />
              <mxPoint x="535" y="234" />
              <mxPoint x="555" y="204" />
            </Array>
          </mxGeometry>
        </mxCell>
        <mxCell id="HeyO3wFch_CCyxyWLXWr-10" value="" style="endArrow=none;html=1;rounded=0;" edge="1" parent="HeyO3wFch_CCyxyWLXWr-1">
          <mxGeometry width="50" height="50" relative="1" as="geometry">
            <mxPoint x="475" y="204" as="sourcePoint" />
            <mxPoint x="595" y="204" as="targetPoint" />
            <Array as="points">
              <mxPoint x="505" y="264" />
              <mxPoint x="565" y="264" />
            </Array>
          </mxGeometry>
        </mxCell>
        <mxCell id="HeyO3wFch_CCyxyWLXWr-13" value="&lt;div&gt;+4&lt;br&gt;&lt;/div&gt;" style="text;html=1;strokeColor=none;fillColor=none;align=center;verticalAlign=middle;whiteSpace=wrap;rounded=0;" vertex="1" parent="HeyO3wFch_CCyxyWLXWr-1">
          <mxGeometry x="475" y="184" width="40" height="20" as="geometry" />
        </mxCell>
        <mxCell id="HeyO3wFch_CCyxyWLXWr-17" style="edgeStyle=orthogonalEdgeStyle;rounded=0;orthogonalLoop=1;jettySize=auto;html=1;exitX=0.5;exitY=0;exitDx=0;exitDy=0;entryX=0;entryY=0.5;entryDx=0;entryDy=0;" edge="1" parent="HeyO3wFch_CCyxyWLXWr-1" source="HeyO3wFch_CCyxyWLXWr-15" target="HeyO3wFch_CCyxyWLXWr-7">
          <mxGeometry relative="1" as="geometry">
            <mxPoint x="455" y="44" as="targetPoint" />
            <Array as="points">
              <mxPoint x="330" y="324" />
              <mxPoint x="330" y="164" />
            </Array>
          </mxGeometry>
        </mxCell>
        <mxCell id="HeyO3wFch_CCyxyWLXWr-15" value="" style="shape=trapezoid;perimeter=trapezoidPerimeter;whiteSpace=wrap;html=1;fixedSize=1;rotation=-90;" vertex="1" parent="HeyO3wFch_CCyxyWLXWr-1">
          <mxGeometry x="340" y="309" width="70" height="30" as="geometry" />
        </mxCell>
        <mxCell id="HeyO3wFch_CCyxyWLXWr-16" value="" style="endArrow=classic;html=1;rounded=0;" edge="1" parent="HeyO3wFch_CCyxyWLXWr-1">
          <mxGeometry width="50" height="50" relative="1" as="geometry">
            <mxPoint x="525" y="264" as="sourcePoint" />
            <mxPoint x="390" y="307" as="targetPoint" />
            <Array as="points">
              <mxPoint x="525" y="307" />
            </Array>
          </mxGeometry>
        </mxCell>
        <mxCell id="_BNl1MDUeWxKP-ctqjUL-28" value="x2" style="rounded=0;whiteSpace=wrap;html=1;" vertex="1" parent="HeyO3wFch_CCyxyWLXWr-1">
          <mxGeometry x="520" y="376" width="120" height="20" as="geometry" />
        </mxCell>
        <mxCell id="_BNl1MDUeWxKP-ctqjUL-29" value="x3" style="rounded=0;whiteSpace=wrap;html=1;" vertex="1" parent="HeyO3wFch_CCyxyWLXWr-1">
          <mxGeometry x="520" y="426" width="120" height="20" as="geometry" />
        </mxCell>
        <mxCell id="_BNl1MDUeWxKP-ctqjUL-60" value="x4" style="rounded=0;whiteSpace=wrap;html=1;" vertex="1" parent="HeyO3wFch_CCyxyWLXWr-1">
          <mxGeometry x="520" y="476" width="120" height="20" as="geometry" />
        </mxCell>
        <mxCell id="_BNl1MDUeWxKP-ctqjUL-61" value="x5" style="rounded=0;whiteSpace=wrap;html=1;" vertex="1" parent="HeyO3wFch_CCyxyWLXWr-1">
          <mxGeometry x="520" y="526" width="120" height="20" as="geometry" />
        </mxCell>
        <mxCell id="_BNl1MDUeWxKP-ctqjUL-62" value="x6" style="rounded=0;whiteSpace=wrap;html=1;" vertex="1" parent="HeyO3wFch_CCyxyWLXWr-1">
          <mxGeometry x="520" y="576" width="120" height="20" as="geometry" />
        </mxCell>
        <mxCell id="_BNl1MDUeWxKP-ctqjUL-63" value="x7" style="rounded=0;whiteSpace=wrap;html=1;" vertex="1" parent="HeyO3wFch_CCyxyWLXWr-1">
          <mxGeometry x="520" y="626" width="120" height="20" as="geometry" />
        </mxCell>
        <mxCell id="_BNl1MDUeWxKP-ctqjUL-64" value="x8" style="rounded=0;whiteSpace=wrap;html=1;" vertex="1" parent="HeyO3wFch_CCyxyWLXWr-1">
          <mxGeometry x="520" y="676" width="120" height="20" as="geometry" />
        </mxCell>
        <mxCell id="_BNl1MDUeWxKP-ctqjUL-65" value="x9" style="rounded=0;whiteSpace=wrap;html=1;" vertex="1" parent="HeyO3wFch_CCyxyWLXWr-1">
          <mxGeometry x="520" y="726" width="120" height="20" as="geometry" />
        </mxCell>
        <mxCell id="_BNl1MDUeWxKP-ctqjUL-66" value="x10" style="rounded=0;whiteSpace=wrap;html=1;" vertex="1" parent="HeyO3wFch_CCyxyWLXWr-1">
          <mxGeometry x="520" y="776" width="120" height="20" as="geometry" />
        </mxCell>
        <mxCell id="_BNl1MDUeWxKP-ctqjUL-67" value="x11" style="rounded=0;whiteSpace=wrap;html=1;" vertex="1" parent="HeyO3wFch_CCyxyWLXWr-1">
          <mxGeometry x="520" y="826" width="120" height="20" as="geometry" />
        </mxCell>
        <mxCell id="_BNl1MDUeWxKP-ctqjUL-68" value="x12" style="rounded=0;whiteSpace=wrap;html=1;" vertex="1" parent="HeyO3wFch_CCyxyWLXWr-1">
          <mxGeometry x="520" y="876" width="120" height="20" as="geometry" />
        </mxCell>
        <mxCell id="_BNl1MDUeWxKP-ctqjUL-69" value="x13" style="rounded=0;whiteSpace=wrap;html=1;" vertex="1" parent="HeyO3wFch_CCyxyWLXWr-1">
          <mxGeometry x="520" y="926" width="120" height="20" as="geometry" />
        </mxCell>
        <mxCell id="_BNl1MDUeWxKP-ctqjUL-70" value="x14" style="rounded=0;whiteSpace=wrap;html=1;" vertex="1" parent="HeyO3wFch_CCyxyWLXWr-1">
          <mxGeometry x="520" y="976" width="120" height="20" as="geometry" />
        </mxCell>
        <mxCell id="_BNl1MDUeWxKP-ctqjUL-71" value="x15" style="rounded=0;whiteSpace=wrap;html=1;" vertex="1" parent="HeyO3wFch_CCyxyWLXWr-1">
          <mxGeometry x="520" y="1026" width="120" height="20" as="geometry" />
        </mxCell>
        <mxCell id="_BNl1MDUeWxKP-ctqjUL-72" value="x16" style="rounded=0;whiteSpace=wrap;html=1;" vertex="1" parent="HeyO3wFch_CCyxyWLXWr-1">
          <mxGeometry x="520" y="1076" width="120" height="20" as="geometry" />
        </mxCell>
        <mxCell id="_BNl1MDUeWxKP-ctqjUL-73" value="x17" style="rounded=0;whiteSpace=wrap;html=1;" vertex="1" parent="HeyO3wFch_CCyxyWLXWr-1">
          <mxGeometry x="520" y="1126" width="120" height="20" as="geometry" />
        </mxCell>
        <mxCell id="_BNl1MDUeWxKP-ctqjUL-74" value="x18" style="rounded=0;whiteSpace=wrap;html=1;" vertex="1" parent="HeyO3wFch_CCyxyWLXWr-1">
          <mxGeometry x="520" y="1176" width="120" height="20" as="geometry" />
        </mxCell>
        <mxCell id="_BNl1MDUeWxKP-ctqjUL-75" value="x19" style="rounded=0;whiteSpace=wrap;html=1;" vertex="1" parent="HeyO3wFch_CCyxyWLXWr-1">
          <mxGeometry x="520" y="1226" width="120" height="20" as="geometry" />
        </mxCell>
        <mxCell id="_BNl1MDUeWxKP-ctqjUL-76" value="x20" style="rounded=0;whiteSpace=wrap;html=1;" vertex="1" parent="HeyO3wFch_CCyxyWLXWr-1">
          <mxGeometry x="520" y="1276" width="120" height="20" as="geometry" />
        </mxCell>
        <mxCell id="_BNl1MDUeWxKP-ctqjUL-77" value="x21" style="rounded=0;whiteSpace=wrap;html=1;" vertex="1" parent="HeyO3wFch_CCyxyWLXWr-1">
          <mxGeometry x="520" y="1326" width="120" height="20" as="geometry" />
        </mxCell>
        <mxCell id="_BNl1MDUeWxKP-ctqjUL-78" value="x22" style="rounded=0;whiteSpace=wrap;html=1;" vertex="1" parent="HeyO3wFch_CCyxyWLXWr-1">
          <mxGeometry x="520" y="1376" width="120" height="20" as="geometry" />
        </mxCell>
        <mxCell id="_BNl1MDUeWxKP-ctqjUL-79" value="x23" style="rounded=0;whiteSpace=wrap;html=1;" vertex="1" parent="HeyO3wFch_CCyxyWLXWr-1">
          <mxGeometry x="520" y="1426" width="120" height="20" as="geometry" />
        </mxCell>
        <mxCell id="_BNl1MDUeWxKP-ctqjUL-80" value="x24" style="rounded=0;whiteSpace=wrap;html=1;" vertex="1" parent="HeyO3wFch_CCyxyWLXWr-1">
          <mxGeometry x="520" y="1476" width="120" height="20" as="geometry" />
        </mxCell>
        <mxCell id="_BNl1MDUeWxKP-ctqjUL-81" value="x25" style="rounded=0;whiteSpace=wrap;html=1;" vertex="1" parent="HeyO3wFch_CCyxyWLXWr-1">
          <mxGeometry x="520" y="1526" width="120" height="20" as="geometry" />
        </mxCell>
        <mxCell id="_BNl1MDUeWxKP-ctqjUL-82" value="x26" style="rounded=0;whiteSpace=wrap;html=1;" vertex="1" parent="HeyO3wFch_CCyxyWLXWr-1">
          <mxGeometry x="520" y="1576" width="120" height="20" as="geometry" />
        </mxCell>
        <mxCell id="_BNl1MDUeWxKP-ctqjUL-83" value="x27" style="rounded=0;whiteSpace=wrap;html=1;" vertex="1" parent="HeyO3wFch_CCyxyWLXWr-1">
          <mxGeometry x="520" y="1626" width="120" height="20" as="geometry" />
        </mxCell>
        <mxCell id="_BNl1MDUeWxKP-ctqjUL-84" value="x28" style="rounded=0;whiteSpace=wrap;html=1;" vertex="1" parent="HeyO3wFch_CCyxyWLXWr-1">
          <mxGeometry x="520" y="1676" width="120" height="20" as="geometry" />
        </mxCell>
        <mxCell id="_BNl1MDUeWxKP-ctqjUL-85" value="x29" style="rounded=0;whiteSpace=wrap;html=1;" vertex="1" parent="HeyO3wFch_CCyxyWLXWr-1">
          <mxGeometry x="520" y="1726" width="120" height="20" as="geometry" />
        </mxCell>
        <mxCell id="_BNl1MDUeWxKP-ctqjUL-86" value="x30" style="rounded=0;whiteSpace=wrap;html=1;" vertex="1" parent="HeyO3wFch_CCyxyWLXWr-1">
          <mxGeometry x="520" y="1776" width="120" height="20" as="geometry" />
        </mxCell>
        <mxCell id="_BNl1MDUeWxKP-ctqjUL-87" value="x31" style="rounded=0;whiteSpace=wrap;html=1;" vertex="1" parent="HeyO3wFch_CCyxyWLXWr-1">
          <mxGeometry x="520" y="1826" width="120" height="20" as="geometry" />
        </mxCell>
        <mxCell id="_BNl1MDUeWxKP-ctqjUL-90" value="" style="endArrow=classic;html=1;startSize=0;entryX=0.329;entryY=0.967;entryDx=0;entryDy=0;entryPerimeter=0;rounded=0;" edge="1" parent="HeyO3wFch_CCyxyWLXWr-1" target="HeyO3wFch_CCyxyWLXWr-15">
          <mxGeometry width="50" height="50" relative="1" as="geometry">
            <mxPoint x="180" y="740" as="sourcePoint" />
            <mxPoint x="270" y="600" as="targetPoint" />
            <Array as="points">
              <mxPoint x="320" y="740" />
              <mxPoint x="320" y="710" />
              <mxPoint x="320" y="592" />
              <mxPoint x="320" y="370" />
              <mxPoint x="420" y="370" />
              <mxPoint x="420" y="336" />
            </Array>
          </mxGeometry>
        </mxCell>
        <mxCell id="_BNl1MDUeWxKP-ctqjUL-91" value="" style="endArrow=classic;html=1;startSize=0;entryX=0.25;entryY=1;entryDx=0;entryDy=0;rounded=0;jumpStyle=arc;" edge="1" parent="HeyO3wFch_CCyxyWLXWr-1" target="_BNl1MDUeWxKP-ctqjUL-28">
          <mxGeometry width="50" height="50" relative="1" as="geometry">
            <mxPoint x="320" y="740" as="sourcePoint" />
            <mxPoint x="460" y="540" as="targetPoint" />
            <Array as="points">
              <mxPoint x="470" y="740" />
              <mxPoint x="470" y="410" />
              <mxPoint x="550" y="410" />
            </Array>
          </mxGeometry>
        </mxCell>
        <mxCell id="_BNl1MDUeWxKP-ctqjUL-92" value="" style="endArrow=classic;html=1;startSize=0;entryX=0.25;entryY=1;entryDx=0;entryDy=0;rounded=0;" edge="1" parent="HeyO3wFch_CCyxyWLXWr-1" target="_BNl1MDUeWxKP-ctqjUL-29">
          <mxGeometry width="50" height="50" relative="1" as="geometry">
            <mxPoint x="470" y="460" as="sourcePoint" />
            <mxPoint x="460" y="540" as="targetPoint" />
            <Array as="points">
              <mxPoint x="550" y="460" />
            </Array>
          </mxGeometry>
        </mxCell>
        <mxCell id="_BNl1MDUeWxKP-ctqjUL-93" value="" style="endArrow=classic;html=1;startSize=0;entryX=0.25;entryY=1;entryDx=0;entryDy=0;rounded=0;" edge="1" parent="HeyO3wFch_CCyxyWLXWr-1" target="_BNl1MDUeWxKP-ctqjUL-60">
          <mxGeometry width="50" height="50" relative="1" as="geometry">
            <mxPoint x="470" y="510" as="sourcePoint" />
            <mxPoint x="550" y="500" as="targetPoint" />
            <Array as="points">
              <mxPoint x="550" y="510" />
            </Array>
          </mxGeometry>
        </mxCell>
        <mxCell id="_BNl1MDUeWxKP-ctqjUL-94" value="" style="endArrow=classic;html=1;startSize=0;entryX=0.25;entryY=1;entryDx=0;entryDy=0;rounded=0;" edge="1" parent="HeyO3wFch_CCyxyWLXWr-1">
          <mxGeometry width="50" height="50" relative="1" as="geometry">
            <mxPoint x="470" y="560" as="sourcePoint" />
            <mxPoint x="550" y="546" as="targetPoint" />
            <Array as="points">
              <mxPoint x="550" y="560" />
            </Array>
          </mxGeometry>
        </mxCell>
        <mxCell id="_BNl1MDUeWxKP-ctqjUL-95" value="" style="endArrow=classic;html=1;startSize=0;entryX=0.25;entryY=1;entryDx=0;entryDy=0;rounded=0;" edge="1" parent="HeyO3wFch_CCyxyWLXWr-1">
          <mxGeometry width="50" height="50" relative="1" as="geometry">
            <mxPoint x="470" y="610" as="sourcePoint" />
            <mxPoint x="550" y="596" as="targetPoint" />
            <Array as="points">
              <mxPoint x="550" y="610" />
            </Array>
          </mxGeometry>
        </mxCell>
        <mxCell id="_BNl1MDUeWxKP-ctqjUL-96" value="" style="endArrow=classic;html=1;startSize=0;entryX=0.25;entryY=1;entryDx=0;entryDy=0;rounded=0;" edge="1" parent="HeyO3wFch_CCyxyWLXWr-1">
          <mxGeometry width="50" height="50" relative="1" as="geometry">
            <mxPoint x="470" y="660" as="sourcePoint" />
            <mxPoint x="550" y="646" as="targetPoint" />
            <Array as="points">
              <mxPoint x="550" y="660" />
            </Array>
          </mxGeometry>
        </mxCell>
        <mxCell id="_BNl1MDUeWxKP-ctqjUL-97" value="" style="endArrow=classic;html=1;startSize=0;entryX=0.25;entryY=1;entryDx=0;entryDy=0;rounded=0;" edge="1" parent="HeyO3wFch_CCyxyWLXWr-1">
          <mxGeometry width="50" height="50" relative="1" as="geometry">
            <mxPoint x="470" y="710" as="sourcePoint" />
            <mxPoint x="550" y="696" as="targetPoint" />
            <Array as="points">
              <mxPoint x="550" y="710" />
            </Array>
          </mxGeometry>
        </mxCell>
        <mxCell id="_BNl1MDUeWxKP-ctqjUL-98" value="" style="endArrow=classic;html=1;startSize=0;entryX=0.25;entryY=1;entryDx=0;entryDy=0;rounded=0;" edge="1" parent="HeyO3wFch_CCyxyWLXWr-1">
          <mxGeometry width="50" height="50" relative="1" as="geometry">
            <mxPoint x="470" y="1860" as="sourcePoint" />
            <mxPoint x="550" y="1846" as="targetPoint" />
            <Array as="points">
              <mxPoint x="550" y="1860" />
            </Array>
          </mxGeometry>
        </mxCell>
        <mxCell id="_BNl1MDUeWxKP-ctqjUL-99" value="" style="endArrow=none;html=1;startSize=0;jumpStyle=arc;" edge="1" parent="HeyO3wFch_CCyxyWLXWr-1">
          <mxGeometry width="50" height="50" relative="1" as="geometry">
            <mxPoint x="470" y="1860" as="sourcePoint" />
            <mxPoint x="470" y="740" as="targetPoint" />
          </mxGeometry>
        </mxCell>
        <mxCell id="_BNl1MDUeWxKP-ctqjUL-100" value="" style="endArrow=classic;html=1;startSize=0;entryX=0.25;entryY=1;entryDx=0;entryDy=0;rounded=0;" edge="1" parent="HeyO3wFch_CCyxyWLXWr-1">
          <mxGeometry width="50" height="50" relative="1" as="geometry">
            <mxPoint x="470" y="760" as="sourcePoint" />
            <mxPoint x="550" y="746" as="targetPoint" />
            <Array as="points">
              <mxPoint x="550" y="760" />
            </Array>
          </mxGeometry>
        </mxCell>
        <mxCell id="_BNl1MDUeWxKP-ctqjUL-101" value="" style="endArrow=classic;html=1;startSize=0;entryX=0.25;entryY=1;entryDx=0;entryDy=0;rounded=0;" edge="1" parent="HeyO3wFch_CCyxyWLXWr-1">
          <mxGeometry width="50" height="50" relative="1" as="geometry">
            <mxPoint x="470" y="810" as="sourcePoint" />
            <mxPoint x="550" y="796" as="targetPoint" />
            <Array as="points">
              <mxPoint x="550" y="810" />
            </Array>
          </mxGeometry>
        </mxCell>
        <mxCell id="_BNl1MDUeWxKP-ctqjUL-102" value="" style="endArrow=classic;html=1;startSize=0;entryX=0.25;entryY=1;entryDx=0;entryDy=0;rounded=0;" edge="1" parent="HeyO3wFch_CCyxyWLXWr-1">
          <mxGeometry width="50" height="50" relative="1" as="geometry">
            <mxPoint x="470" y="860" as="sourcePoint" />
            <mxPoint x="550" y="846" as="targetPoint" />
            <Array as="points">
              <mxPoint x="550" y="860" />
            </Array>
          </mxGeometry>
        </mxCell>
        <mxCell id="_BNl1MDUeWxKP-ctqjUL-103" value="" style="endArrow=classic;html=1;startSize=0;entryX=0.25;entryY=1;entryDx=0;entryDy=0;rounded=0;" edge="1" parent="HeyO3wFch_CCyxyWLXWr-1">
          <mxGeometry width="50" height="50" relative="1" as="geometry">
            <mxPoint x="470" y="910" as="sourcePoint" />
            <mxPoint x="550" y="896" as="targetPoint" />
            <Array as="points">
              <mxPoint x="550" y="910" />
            </Array>
          </mxGeometry>
        </mxCell>
        <mxCell id="_BNl1MDUeWxKP-ctqjUL-104" value="" style="endArrow=classic;html=1;startSize=0;entryX=0.25;entryY=1;entryDx=0;entryDy=0;rounded=0;" edge="1" parent="HeyO3wFch_CCyxyWLXWr-1">
          <mxGeometry width="50" height="50" relative="1" as="geometry">
            <mxPoint x="470" y="960" as="sourcePoint" />
            <mxPoint x="550" y="946" as="targetPoint" />
            <Array as="points">
              <mxPoint x="550" y="960" />
            </Array>
          </mxGeometry>
        </mxCell>
        <mxCell id="_BNl1MDUeWxKP-ctqjUL-105" value="" style="endArrow=classic;html=1;startSize=0;entryX=0.25;entryY=1;entryDx=0;entryDy=0;rounded=0;" edge="1" parent="HeyO3wFch_CCyxyWLXWr-1">
          <mxGeometry width="50" height="50" relative="1" as="geometry">
            <mxPoint x="470" y="1010" as="sourcePoint" />
            <mxPoint x="550" y="996" as="targetPoint" />
            <Array as="points">
              <mxPoint x="550" y="1010" />
            </Array>
          </mxGeometry>
        </mxCell>
        <mxCell id="_BNl1MDUeWxKP-ctqjUL-106" value="" style="endArrow=classic;html=1;startSize=0;entryX=0.25;entryY=1;entryDx=0;entryDy=0;rounded=0;" edge="1" parent="HeyO3wFch_CCyxyWLXWr-1">
          <mxGeometry width="50" height="50" relative="1" as="geometry">
            <mxPoint x="470" y="1060" as="sourcePoint" />
            <mxPoint x="550" y="1046" as="targetPoint" />
            <Array as="points">
              <mxPoint x="550" y="1060" />
            </Array>
          </mxGeometry>
        </mxCell>
        <mxCell id="_BNl1MDUeWxKP-ctqjUL-107" value="" style="endArrow=classic;html=1;startSize=0;entryX=0.25;entryY=1;entryDx=0;entryDy=0;rounded=0;" edge="1" parent="HeyO3wFch_CCyxyWLXWr-1">
          <mxGeometry width="50" height="50" relative="1" as="geometry">
            <mxPoint x="470" y="1110" as="sourcePoint" />
            <mxPoint x="550" y="1096" as="targetPoint" />
            <Array as="points">
              <mxPoint x="550" y="1110" />
            </Array>
          </mxGeometry>
        </mxCell>
        <mxCell id="_BNl1MDUeWxKP-ctqjUL-108" value="" style="endArrow=classic;html=1;startSize=0;entryX=0.25;entryY=1;entryDx=0;entryDy=0;rounded=0;" edge="1" parent="HeyO3wFch_CCyxyWLXWr-1">
          <mxGeometry width="50" height="50" relative="1" as="geometry">
            <mxPoint x="470" y="1160" as="sourcePoint" />
            <mxPoint x="550" y="1146" as="targetPoint" />
            <Array as="points">
              <mxPoint x="550" y="1160" />
            </Array>
          </mxGeometry>
        </mxCell>
        <mxCell id="_BNl1MDUeWxKP-ctqjUL-109" value="" style="endArrow=classic;html=1;startSize=0;entryX=0.25;entryY=1;entryDx=0;entryDy=0;rounded=0;" edge="1" parent="HeyO3wFch_CCyxyWLXWr-1">
          <mxGeometry width="50" height="50" relative="1" as="geometry">
            <mxPoint x="470" y="1210" as="sourcePoint" />
            <mxPoint x="550" y="1196" as="targetPoint" />
            <Array as="points">
              <mxPoint x="550" y="1210" />
            </Array>
          </mxGeometry>
        </mxCell>
        <mxCell id="_BNl1MDUeWxKP-ctqjUL-110" value="" style="endArrow=classic;html=1;startSize=0;entryX=0.25;entryY=1;entryDx=0;entryDy=0;rounded=0;" edge="1" parent="HeyO3wFch_CCyxyWLXWr-1">
          <mxGeometry width="50" height="50" relative="1" as="geometry">
            <mxPoint x="470" y="1260" as="sourcePoint" />
            <mxPoint x="550" y="1246" as="targetPoint" />
            <Array as="points">
              <mxPoint x="550" y="1260" />
            </Array>
          </mxGeometry>
        </mxCell>
        <mxCell id="_BNl1MDUeWxKP-ctqjUL-111" value="" style="endArrow=classic;html=1;startSize=0;entryX=0.25;entryY=1;entryDx=0;entryDy=0;rounded=0;" edge="1" parent="HeyO3wFch_CCyxyWLXWr-1">
          <mxGeometry width="50" height="50" relative="1" as="geometry">
            <mxPoint x="470" y="1310" as="sourcePoint" />
            <mxPoint x="550" y="1296" as="targetPoint" />
            <Array as="points">
              <mxPoint x="550" y="1310" />
            </Array>
          </mxGeometry>
        </mxCell>
        <mxCell id="_BNl1MDUeWxKP-ctqjUL-112" value="" style="endArrow=classic;html=1;startSize=0;entryX=0.25;entryY=1;entryDx=0;entryDy=0;rounded=0;" edge="1" parent="HeyO3wFch_CCyxyWLXWr-1">
          <mxGeometry width="50" height="50" relative="1" as="geometry">
            <mxPoint x="470" y="1360" as="sourcePoint" />
            <mxPoint x="550" y="1346" as="targetPoint" />
            <Array as="points">
              <mxPoint x="550" y="1360" />
            </Array>
          </mxGeometry>
        </mxCell>
        <mxCell id="_BNl1MDUeWxKP-ctqjUL-113" value="" style="endArrow=classic;html=1;startSize=0;entryX=0.25;entryY=1;entryDx=0;entryDy=0;rounded=0;" edge="1" parent="HeyO3wFch_CCyxyWLXWr-1">
          <mxGeometry width="50" height="50" relative="1" as="geometry">
            <mxPoint x="470" y="1410" as="sourcePoint" />
            <mxPoint x="550" y="1396" as="targetPoint" />
            <Array as="points">
              <mxPoint x="550" y="1410" />
            </Array>
          </mxGeometry>
        </mxCell>
        <mxCell id="_BNl1MDUeWxKP-ctqjUL-114" value="" style="endArrow=classic;html=1;startSize=0;entryX=0.25;entryY=1;entryDx=0;entryDy=0;rounded=0;" edge="1" parent="HeyO3wFch_CCyxyWLXWr-1">
          <mxGeometry width="50" height="50" relative="1" as="geometry">
            <mxPoint x="470" y="1460" as="sourcePoint" />
            <mxPoint x="550" y="1446" as="targetPoint" />
            <Array as="points">
              <mxPoint x="550" y="1460" />
            </Array>
          </mxGeometry>
        </mxCell>
        <mxCell id="_BNl1MDUeWxKP-ctqjUL-115" value="" style="endArrow=classic;html=1;startSize=0;entryX=0.25;entryY=1;entryDx=0;entryDy=0;rounded=0;" edge="1" parent="HeyO3wFch_CCyxyWLXWr-1">
          <mxGeometry width="50" height="50" relative="1" as="geometry">
            <mxPoint x="470" y="1510" as="sourcePoint" />
            <mxPoint x="550" y="1496" as="targetPoint" />
            <Array as="points">
              <mxPoint x="550" y="1510" />
            </Array>
          </mxGeometry>
        </mxCell>
        <mxCell id="_BNl1MDUeWxKP-ctqjUL-116" value="" style="endArrow=classic;html=1;startSize=0;entryX=0.25;entryY=1;entryDx=0;entryDy=0;rounded=0;" edge="1" parent="HeyO3wFch_CCyxyWLXWr-1">
          <mxGeometry width="50" height="50" relative="1" as="geometry">
            <mxPoint x="470" y="1560" as="sourcePoint" />
            <mxPoint x="550" y="1546" as="targetPoint" />
            <Array as="points">
              <mxPoint x="550" y="1560" />
            </Array>
          </mxGeometry>
        </mxCell>
        <mxCell id="_BNl1MDUeWxKP-ctqjUL-117" value="" style="endArrow=classic;html=1;startSize=0;entryX=0.25;entryY=1;entryDx=0;entryDy=0;rounded=0;" edge="1" parent="HeyO3wFch_CCyxyWLXWr-1">
          <mxGeometry width="50" height="50" relative="1" as="geometry">
            <mxPoint x="470" y="1610" as="sourcePoint" />
            <mxPoint x="550" y="1596" as="targetPoint" />
            <Array as="points">
              <mxPoint x="550" y="1610" />
            </Array>
          </mxGeometry>
        </mxCell>
        <mxCell id="_BNl1MDUeWxKP-ctqjUL-118" value="" style="endArrow=classic;html=1;startSize=0;entryX=0.25;entryY=1;entryDx=0;entryDy=0;rounded=0;" edge="1" parent="HeyO3wFch_CCyxyWLXWr-1">
          <mxGeometry width="50" height="50" relative="1" as="geometry">
            <mxPoint x="470" y="1660" as="sourcePoint" />
            <mxPoint x="550" y="1646" as="targetPoint" />
            <Array as="points">
              <mxPoint x="550" y="1660" />
            </Array>
          </mxGeometry>
        </mxCell>
        <mxCell id="_BNl1MDUeWxKP-ctqjUL-119" value="" style="endArrow=classic;html=1;startSize=0;entryX=0.25;entryY=1;entryDx=0;entryDy=0;rounded=0;" edge="1" parent="HeyO3wFch_CCyxyWLXWr-1">
          <mxGeometry width="50" height="50" relative="1" as="geometry">
            <mxPoint x="470" y="1710" as="sourcePoint" />
            <mxPoint x="550" y="1696" as="targetPoint" />
            <Array as="points">
              <mxPoint x="550" y="1710" />
            </Array>
          </mxGeometry>
        </mxCell>
        <mxCell id="_BNl1MDUeWxKP-ctqjUL-120" value="" style="endArrow=classic;html=1;startSize=0;entryX=0.25;entryY=1;entryDx=0;entryDy=0;rounded=0;" edge="1" parent="HeyO3wFch_CCyxyWLXWr-1">
          <mxGeometry width="50" height="50" relative="1" as="geometry">
            <mxPoint x="470" y="1760" as="sourcePoint" />
            <mxPoint x="550" y="1746" as="targetPoint" />
            <Array as="points">
              <mxPoint x="550" y="1760" />
            </Array>
          </mxGeometry>
        </mxCell>
        <mxCell id="_BNl1MDUeWxKP-ctqjUL-121" value="" style="endArrow=classic;html=1;startSize=0;entryX=0.25;entryY=1;entryDx=0;entryDy=0;rounded=0;" edge="1" parent="HeyO3wFch_CCyxyWLXWr-1">
          <mxGeometry width="50" height="50" relative="1" as="geometry">
            <mxPoint x="470" y="1810" as="sourcePoint" />
            <mxPoint x="550" y="1796" as="targetPoint" />
            <Array as="points">
              <mxPoint x="550" y="1810" />
            </Array>
          </mxGeometry>
        </mxCell>
        <mxCell id="_BNl1MDUeWxKP-ctqjUL-123" value="" style="endArrow=classic;html=1;startSize=0;jumpStyle=arc;entryX=0;entryY=0.5;entryDx=0;entryDy=0;jumpSize=15;strokeColor=#FF0000;" edge="1" parent="HeyO3wFch_CCyxyWLXWr-1" target="_BNl1MDUeWxKP-ctqjUL-71">
          <mxGeometry width="50" height="50" relative="1" as="geometry">
            <mxPoint x="400" y="1036" as="sourcePoint" />
            <mxPoint x="340" y="1010" as="targetPoint" />
          </mxGeometry>
        </mxCell>
        <mxCell id="_BNl1MDUeWxKP-ctqjUL-124" value="" style="endArrow=classic;html=1;startSize=0;jumpStyle=arc;entryX=0;entryY=0.5;entryDx=0;entryDy=0;jumpSize=15;strokeColor=#FF0000;" edge="1" parent="HeyO3wFch_CCyxyWLXWr-1">
          <mxGeometry width="50" height="50" relative="1" as="geometry">
            <mxPoint x="400" y="1085" as="sourcePoint" />
            <mxPoint x="520" y="1085" as="targetPoint" />
          </mxGeometry>
        </mxCell>
        <mxCell id="_BNl1MDUeWxKP-ctqjUL-125" value="" style="endArrow=classic;html=1;startSize=0;jumpStyle=arc;entryX=0;entryY=0.5;entryDx=0;entryDy=0;jumpSize=15;strokeColor=#FF0000;" edge="1" parent="HeyO3wFch_CCyxyWLXWr-1">
          <mxGeometry width="50" height="50" relative="1" as="geometry">
            <mxPoint x="400" y="936" as="sourcePoint" />
            <mxPoint x="520" y="936" as="targetPoint" />
          </mxGeometry>
        </mxCell>
        <mxCell id="_BNl1MDUeWxKP-ctqjUL-126" value="" style="endArrow=classic;html=1;startSize=0;jumpStyle=arc;entryX=0;entryY=0.5;entryDx=0;entryDy=0;jumpSize=15;strokeColor=#FF0000;" edge="1" parent="HeyO3wFch_CCyxyWLXWr-1">
          <mxGeometry width="50" height="50" relative="1" as="geometry">
            <mxPoint x="400" y="987" as="sourcePoint" />
            <mxPoint x="520" y="987" as="targetPoint" />
          </mxGeometry>
        </mxCell>
        <mxCell id="_BNl1MDUeWxKP-ctqjUL-127" value="" style="endArrow=classic;html=1;startSize=0;jumpStyle=arc;entryX=0;entryY=0.5;entryDx=0;entryDy=0;jumpSize=15;strokeColor=#FF0000;" edge="1" parent="HeyO3wFch_CCyxyWLXWr-1">
          <mxGeometry width="50" height="50" relative="1" as="geometry">
            <mxPoint x="400" y="1236" as="sourcePoint" />
            <mxPoint x="520" y="1236" as="targetPoint" />
          </mxGeometry>
        </mxCell>
        <mxCell id="_BNl1MDUeWxKP-ctqjUL-128" value="" style="endArrow=classic;html=1;startSize=0;jumpStyle=arc;entryX=0;entryY=0.5;entryDx=0;entryDy=0;jumpSize=15;strokeColor=#FF0000;" edge="1" parent="HeyO3wFch_CCyxyWLXWr-1">
          <mxGeometry width="50" height="50" relative="1" as="geometry">
            <mxPoint x="400" y="1286" as="sourcePoint" />
            <mxPoint x="520" y="1286" as="targetPoint" />
          </mxGeometry>
        </mxCell>
        <mxCell id="_BNl1MDUeWxKP-ctqjUL-129" value="" style="endArrow=classic;html=1;startSize=0;jumpStyle=arc;entryX=0;entryY=0.5;entryDx=0;entryDy=0;jumpSize=15;strokeColor=#FF0000;" edge="1" parent="HeyO3wFch_CCyxyWLXWr-1">
          <mxGeometry width="50" height="50" relative="1" as="geometry">
            <mxPoint x="400" y="1136" as="sourcePoint" />
            <mxPoint x="520" y="1136" as="targetPoint" />
          </mxGeometry>
        </mxCell>
        <mxCell id="_BNl1MDUeWxKP-ctqjUL-130" value="" style="endArrow=classic;html=1;startSize=0;jumpStyle=arc;entryX=0;entryY=0.5;entryDx=0;entryDy=0;jumpSize=15;strokeColor=#FF0000;" edge="1" parent="HeyO3wFch_CCyxyWLXWr-1">
          <mxGeometry width="50" height="50" relative="1" as="geometry">
            <mxPoint x="400" y="1186" as="sourcePoint" />
            <mxPoint x="520" y="1186" as="targetPoint" />
          </mxGeometry>
        </mxCell>
        <mxCell id="_BNl1MDUeWxKP-ctqjUL-131" value="" style="endArrow=classic;html=1;startSize=0;jumpStyle=arc;entryX=0;entryY=0.5;entryDx=0;entryDy=0;jumpSize=15;strokeColor=#FF0000;" edge="1" parent="HeyO3wFch_CCyxyWLXWr-1">
          <mxGeometry width="50" height="50" relative="1" as="geometry">
            <mxPoint x="400" y="1436" as="sourcePoint" />
            <mxPoint x="520" y="1436" as="targetPoint" />
          </mxGeometry>
        </mxCell>
        <mxCell id="_BNl1MDUeWxKP-ctqjUL-132" value="" style="endArrow=classic;html=1;startSize=0;jumpStyle=arc;entryX=0;entryY=0.5;entryDx=0;entryDy=0;jumpSize=15;strokeColor=#FF0000;" edge="1" parent="HeyO3wFch_CCyxyWLXWr-1">
          <mxGeometry width="50" height="50" relative="1" as="geometry">
            <mxPoint x="400" y="1486" as="sourcePoint" />
            <mxPoint x="520" y="1486" as="targetPoint" />
          </mxGeometry>
        </mxCell>
        <mxCell id="_BNl1MDUeWxKP-ctqjUL-133" value="" style="endArrow=classic;html=1;startSize=0;jumpStyle=arc;entryX=0;entryY=0.5;entryDx=0;entryDy=0;jumpSize=15;strokeColor=#FF0000;" edge="1" parent="HeyO3wFch_CCyxyWLXWr-1">
          <mxGeometry width="50" height="50" relative="1" as="geometry">
            <mxPoint x="400" y="1336" as="sourcePoint" />
            <mxPoint x="520" y="1336" as="targetPoint" />
          </mxGeometry>
        </mxCell>
        <mxCell id="_BNl1MDUeWxKP-ctqjUL-134" value="" style="endArrow=classic;html=1;startSize=0;jumpStyle=arc;entryX=0;entryY=0.5;entryDx=0;entryDy=0;jumpSize=15;strokeColor=#FF0000;" edge="1" parent="HeyO3wFch_CCyxyWLXWr-1">
          <mxGeometry width="50" height="50" relative="1" as="geometry">
            <mxPoint x="400" y="1386" as="sourcePoint" />
            <mxPoint x="520" y="1386" as="targetPoint" />
          </mxGeometry>
        </mxCell>
        <mxCell id="_BNl1MDUeWxKP-ctqjUL-135" value="" style="endArrow=classic;html=1;startSize=0;jumpStyle=arc;entryX=0;entryY=0.5;entryDx=0;entryDy=0;jumpSize=15;strokeColor=#FF0000;" edge="1" parent="HeyO3wFch_CCyxyWLXWr-1">
          <mxGeometry width="50" height="50" relative="1" as="geometry">
            <mxPoint x="400" y="1636" as="sourcePoint" />
            <mxPoint x="520" y="1636" as="targetPoint" />
          </mxGeometry>
        </mxCell>
        <mxCell id="_BNl1MDUeWxKP-ctqjUL-136" value="" style="endArrow=classic;html=1;startSize=0;jumpStyle=arc;entryX=0;entryY=0.5;entryDx=0;entryDy=0;jumpSize=15;strokeColor=#FF0000;" edge="1" parent="HeyO3wFch_CCyxyWLXWr-1">
          <mxGeometry width="50" height="50" relative="1" as="geometry">
            <mxPoint x="400" y="1686" as="sourcePoint" />
            <mxPoint x="520" y="1686" as="targetPoint" />
          </mxGeometry>
        </mxCell>
        <mxCell id="_BNl1MDUeWxKP-ctqjUL-137" value="" style="endArrow=classic;html=1;startSize=0;jumpStyle=arc;entryX=0;entryY=0.5;entryDx=0;entryDy=0;jumpSize=15;strokeColor=#FF0000;" edge="1" parent="HeyO3wFch_CCyxyWLXWr-1">
          <mxGeometry width="50" height="50" relative="1" as="geometry">
            <mxPoint x="400" y="1536" as="sourcePoint" />
            <mxPoint x="520" y="1536" as="targetPoint" />
          </mxGeometry>
        </mxCell>
        <mxCell id="_BNl1MDUeWxKP-ctqjUL-138" value="" style="endArrow=classic;html=1;startSize=0;jumpStyle=arc;entryX=0;entryY=0.5;entryDx=0;entryDy=0;jumpSize=15;strokeColor=#FF0000;" edge="1" parent="HeyO3wFch_CCyxyWLXWr-1">
          <mxGeometry width="50" height="50" relative="1" as="geometry">
            <mxPoint x="400" y="1586" as="sourcePoint" />
            <mxPoint x="520" y="1586" as="targetPoint" />
          </mxGeometry>
        </mxCell>
        <mxCell id="_BNl1MDUeWxKP-ctqjUL-139" value="" style="endArrow=classic;html=1;startSize=0;jumpStyle=arc;entryX=0;entryY=0.5;entryDx=0;entryDy=0;jumpSize=15;strokeColor=#FF0000;" edge="1" parent="HeyO3wFch_CCyxyWLXWr-1">
          <mxGeometry width="50" height="50" relative="1" as="geometry">
            <mxPoint x="400" y="1786" as="sourcePoint" />
            <mxPoint x="520" y="1786" as="targetPoint" />
          </mxGeometry>
        </mxCell>
        <mxCell id="_BNl1MDUeWxKP-ctqjUL-140" value="" style="endArrow=classic;html=1;startSize=0;jumpStyle=arc;entryX=0;entryY=0.5;entryDx=0;entryDy=0;jumpSize=15;strokeColor=#FF0000;" edge="1" parent="HeyO3wFch_CCyxyWLXWr-1">
          <mxGeometry width="50" height="50" relative="1" as="geometry">
            <mxPoint x="400" y="1836" as="sourcePoint" />
            <mxPoint x="520" y="1836" as="targetPoint" />
          </mxGeometry>
        </mxCell>
        <mxCell id="_BNl1MDUeWxKP-ctqjUL-141" value="" style="endArrow=classic;html=1;startSize=0;jumpStyle=arc;entryX=0;entryY=0.5;entryDx=0;entryDy=0;jumpSize=15;strokeColor=#FF0000;" edge="1" parent="HeyO3wFch_CCyxyWLXWr-1">
          <mxGeometry width="50" height="50" relative="1" as="geometry">
            <mxPoint x="400" y="1736" as="sourcePoint" />
            <mxPoint x="520" y="1736" as="targetPoint" />
          </mxGeometry>
        </mxCell>
        <mxCell id="_BNl1MDUeWxKP-ctqjUL-142" value="" style="endArrow=classic;html=1;startSize=0;jumpStyle=arc;entryX=0;entryY=0.5;entryDx=0;entryDy=0;jumpSize=15;strokeColor=#FF0000;" edge="1" parent="HeyO3wFch_CCyxyWLXWr-1">
          <mxGeometry width="50" height="50" relative="1" as="geometry">
            <mxPoint x="400" y="586" as="sourcePoint" />
            <mxPoint x="520" y="586" as="targetPoint" />
          </mxGeometry>
        </mxCell>
        <mxCell id="_BNl1MDUeWxKP-ctqjUL-143" value="" style="endArrow=classic;html=1;startSize=0;jumpStyle=arc;entryX=0;entryY=0.5;entryDx=0;entryDy=0;jumpSize=15;strokeColor=#FF0000;" edge="1" parent="HeyO3wFch_CCyxyWLXWr-1">
          <mxGeometry width="50" height="50" relative="1" as="geometry">
            <mxPoint x="400" y="635" as="sourcePoint" />
            <mxPoint x="520" y="635" as="targetPoint" />
          </mxGeometry>
        </mxCell>
        <mxCell id="_BNl1MDUeWxKP-ctqjUL-144" value="" style="endArrow=classic;html=1;startSize=0;jumpStyle=arc;entryX=0;entryY=0.5;entryDx=0;entryDy=0;jumpSize=15;strokeColor=#FF0000;" edge="1" parent="HeyO3wFch_CCyxyWLXWr-1">
          <mxGeometry width="50" height="50" relative="1" as="geometry">
            <mxPoint x="400" y="486" as="sourcePoint" />
            <mxPoint x="520" y="486" as="targetPoint" />
          </mxGeometry>
        </mxCell>
        <mxCell id="_BNl1MDUeWxKP-ctqjUL-145" value="" style="endArrow=classic;html=1;startSize=0;jumpStyle=arc;entryX=0;entryY=0.5;entryDx=0;entryDy=0;jumpSize=15;strokeColor=#FF0000;" edge="1" parent="HeyO3wFch_CCyxyWLXWr-1">
          <mxGeometry width="50" height="50" relative="1" as="geometry">
            <mxPoint x="400" y="536" as="sourcePoint" />
            <mxPoint x="520" y="536" as="targetPoint" />
          </mxGeometry>
        </mxCell>
        <mxCell id="_BNl1MDUeWxKP-ctqjUL-146" value="" style="endArrow=classic;html=1;startSize=0;jumpStyle=arc;entryX=0;entryY=0.5;entryDx=0;entryDy=0;jumpSize=15;strokeColor=#FF0000;" edge="1" parent="HeyO3wFch_CCyxyWLXWr-1">
          <mxGeometry width="50" height="50" relative="1" as="geometry">
            <mxPoint x="400" y="786" as="sourcePoint" />
            <mxPoint x="520" y="786" as="targetPoint" />
          </mxGeometry>
        </mxCell>
        <mxCell id="_BNl1MDUeWxKP-ctqjUL-147" value="" style="endArrow=classic;html=1;startSize=0;jumpStyle=arc;entryX=0;entryY=0.5;entryDx=0;entryDy=0;jumpSize=15;strokeColor=#FF0000;" edge="1" parent="HeyO3wFch_CCyxyWLXWr-1">
          <mxGeometry width="50" height="50" relative="1" as="geometry">
            <mxPoint x="400" y="835" as="sourcePoint" />
            <mxPoint x="520" y="835" as="targetPoint" />
          </mxGeometry>
        </mxCell>
        <mxCell id="_BNl1MDUeWxKP-ctqjUL-148" value="" style="endArrow=classic;html=1;startSize=0;jumpStyle=arc;entryX=0;entryY=0.5;entryDx=0;entryDy=0;jumpSize=15;strokeColor=#FF0000;" edge="1" parent="HeyO3wFch_CCyxyWLXWr-1">
          <mxGeometry width="50" height="50" relative="1" as="geometry">
            <mxPoint x="400" y="686" as="sourcePoint" />
            <mxPoint x="520" y="686" as="targetPoint" />
          </mxGeometry>
        </mxCell>
        <mxCell id="_BNl1MDUeWxKP-ctqjUL-149" value="" style="endArrow=classic;html=1;startSize=0;jumpStyle=arc;entryX=0;entryY=0.5;entryDx=0;entryDy=0;jumpSize=15;strokeColor=#FF0000;" edge="1" parent="HeyO3wFch_CCyxyWLXWr-1">
          <mxGeometry width="50" height="50" relative="1" as="geometry">
            <mxPoint x="400" y="736" as="sourcePoint" />
            <mxPoint x="520" y="736" as="targetPoint" />
          </mxGeometry>
        </mxCell>
        <mxCell id="_BNl1MDUeWxKP-ctqjUL-150" value="" style="endArrow=classic;html=1;startSize=0;jumpStyle=arc;entryX=0;entryY=0.5;entryDx=0;entryDy=0;jumpSize=15;strokeColor=#FF0000;" edge="1" parent="HeyO3wFch_CCyxyWLXWr-1">
          <mxGeometry width="50" height="50" relative="1" as="geometry">
            <mxPoint x="400" y="885" as="sourcePoint" />
            <mxPoint x="520" y="884.5" as="targetPoint" />
          </mxGeometry>
        </mxCell>
        <mxCell id="_BNl1MDUeWxKP-ctqjUL-151" value="" style="endArrow=classic;html=1;startSize=0;jumpStyle=arc;entryX=0;entryY=0.5;entryDx=0;entryDy=0;jumpSize=15;strokeColor=#FF0000;" edge="1" parent="HeyO3wFch_CCyxyWLXWr-1">
          <mxGeometry width="50" height="50" relative="1" as="geometry">
            <mxPoint x="400" y="390" as="sourcePoint" />
            <mxPoint x="520" y="390" as="targetPoint" />
          </mxGeometry>
        </mxCell>
        <mxCell id="_BNl1MDUeWxKP-ctqjUL-152" value="" style="endArrow=classic;html=1;startSize=0;jumpStyle=arc;entryX=0;entryY=0.5;entryDx=0;entryDy=0;jumpSize=15;strokeColor=#FF0000;" edge="1" parent="HeyO3wFch_CCyxyWLXWr-1">
          <mxGeometry width="50" height="50" relative="1" as="geometry">
            <mxPoint x="400" y="436" as="sourcePoint" />
            <mxPoint x="520" y="436" as="targetPoint" />
          </mxGeometry>
        </mxCell>
        <mxCell id="_BNl1MDUeWxKP-ctqjUL-153" value="" style="endArrow=none;html=1;startSize=0;strokeColor=#FF0000;rounded=0;snapToPoint=1;" edge="1" parent="HeyO3wFch_CCyxyWLXWr-1">
          <mxGeometry width="50" height="50" relative="1" as="geometry">
            <mxPoint x="390" y="1070" as="sourcePoint" />
            <mxPoint x="400" y="1136" as="targetPoint" />
            <Array as="points">
              <mxPoint x="390" y="1136" />
            </Array>
          </mxGeometry>
        </mxCell>
        <mxCell id="_BNl1MDUeWxKP-ctqjUL-155" value="" style="endArrow=none;html=1;startSize=0;strokeColor=#FF0000;rounded=0;snapToPoint=1;" edge="1" parent="HeyO3wFch_CCyxyWLXWr-1">
          <mxGeometry width="50" height="50" relative="1" as="geometry">
            <mxPoint x="380" y="1080" as="sourcePoint" />
            <mxPoint x="400" y="1186" as="targetPoint" />
            <Array as="points">
              <mxPoint x="380" y="1186" />
            </Array>
          </mxGeometry>
        </mxCell>
        <mxCell id="_BNl1MDUeWxKP-ctqjUL-156" value="" style="endArrow=none;html=1;startSize=0;strokeColor=#FF0000;rounded=0;snapToPoint=1;" edge="1" parent="HeyO3wFch_CCyxyWLXWr-1">
          <mxGeometry width="50" height="50" relative="1" as="geometry">
            <mxPoint x="370" y="1090" as="sourcePoint" />
            <mxPoint x="400" y="1236" as="targetPoint" />
            <Array as="points">
              <mxPoint x="370" y="1236" />
            </Array>
          </mxGeometry>
        </mxCell>
        <mxCell id="_BNl1MDUeWxKP-ctqjUL-157" value="" style="endArrow=none;html=1;startSize=0;strokeColor=#FF0000;rounded=0;snapToPoint=1;" edge="1" parent="HeyO3wFch_CCyxyWLXWr-1">
          <mxGeometry width="50" height="50" relative="1" as="geometry">
            <mxPoint x="360" y="1100" as="sourcePoint" />
            <mxPoint x="400" y="1286" as="targetPoint" />
            <Array as="points">
              <mxPoint x="360" y="1286" />
            </Array>
          </mxGeometry>
        </mxCell>
        <mxCell id="_BNl1MDUeWxKP-ctqjUL-158" value="" style="endArrow=none;html=1;startSize=0;strokeColor=#FF0000;rounded=0;snapToPoint=1;" edge="1" parent="HeyO3wFch_CCyxyWLXWr-1">
          <mxGeometry width="50" height="50" relative="1" as="geometry">
            <mxPoint x="350" y="1110" as="sourcePoint" />
            <mxPoint x="400" y="1336" as="targetPoint" />
            <Array as="points">
              <mxPoint x="350" y="1336" />
            </Array>
          </mxGeometry>
        </mxCell>
        <mxCell id="_BNl1MDUeWxKP-ctqjUL-159" value="" style="endArrow=none;html=1;startSize=0;strokeColor=#FF0000;rounded=0;snapToPoint=1;" edge="1" parent="HeyO3wFch_CCyxyWLXWr-1">
          <mxGeometry width="50" height="50" relative="1" as="geometry">
            <mxPoint x="340" y="1120" as="sourcePoint" />
            <mxPoint x="400" y="1386" as="targetPoint" />
            <Array as="points">
              <mxPoint x="340" y="1386" />
            </Array>
          </mxGeometry>
        </mxCell>
        <mxCell id="_BNl1MDUeWxKP-ctqjUL-160" value="" style="endArrow=none;html=1;startSize=0;strokeColor=#FF0000;rounded=0;snapToPoint=1;" edge="1" parent="HeyO3wFch_CCyxyWLXWr-1">
          <mxGeometry width="50" height="50" relative="1" as="geometry">
            <mxPoint x="330" y="1130" as="sourcePoint" />
            <mxPoint x="400" y="1436" as="targetPoint" />
            <Array as="points">
              <mxPoint x="330" y="1436" />
            </Array>
          </mxGeometry>
        </mxCell>
        <mxCell id="_BNl1MDUeWxKP-ctqjUL-161" value="" style="endArrow=none;html=1;startSize=0;strokeColor=#FF0000;rounded=0;snapToPoint=1;" edge="1" parent="HeyO3wFch_CCyxyWLXWr-1">
          <mxGeometry width="50" height="50" relative="1" as="geometry">
            <mxPoint x="320" y="1140" as="sourcePoint" />
            <mxPoint x="400" y="1486" as="targetPoint" />
            <Array as="points">
              <mxPoint x="320" y="1486" />
            </Array>
          </mxGeometry>
        </mxCell>
        <mxCell id="_BNl1MDUeWxKP-ctqjUL-162" value="" style="endArrow=none;html=1;startSize=0;strokeColor=#FF0000;rounded=0;snapToPoint=1;" edge="1" parent="HeyO3wFch_CCyxyWLXWr-1">
          <mxGeometry width="50" height="50" relative="1" as="geometry">
            <mxPoint x="310" y="1150" as="sourcePoint" />
            <mxPoint x="400" y="1536" as="targetPoint" />
            <Array as="points">
              <mxPoint x="310" y="1536" />
            </Array>
          </mxGeometry>
        </mxCell>
        <mxCell id="_BNl1MDUeWxKP-ctqjUL-163" value="" style="endArrow=none;html=1;startSize=0;strokeColor=#FF0000;rounded=0;snapToPoint=1;" edge="1" parent="HeyO3wFch_CCyxyWLXWr-1">
          <mxGeometry width="50" height="50" relative="1" as="geometry">
            <mxPoint x="300" y="1160" as="sourcePoint" />
            <mxPoint x="400" y="1586" as="targetPoint" />
            <Array as="points">
              <mxPoint x="300" y="1586" />
            </Array>
          </mxGeometry>
        </mxCell>
        <mxCell id="_BNl1MDUeWxKP-ctqjUL-164" value="" style="endArrow=none;html=1;startSize=0;strokeColor=#FF0000;rounded=0;snapToPoint=1;" edge="1" parent="HeyO3wFch_CCyxyWLXWr-1">
          <mxGeometry width="50" height="50" relative="1" as="geometry">
            <mxPoint x="290" y="1170" as="sourcePoint" />
            <mxPoint x="400" y="1636" as="targetPoint" />
            <Array as="points">
              <mxPoint x="290" y="1636" />
            </Array>
          </mxGeometry>
        </mxCell>
        <mxCell id="_BNl1MDUeWxKP-ctqjUL-165" value="" style="endArrow=none;html=1;startSize=0;strokeColor=#FF0000;rounded=0;snapToPoint=1;" edge="1" parent="HeyO3wFch_CCyxyWLXWr-1">
          <mxGeometry width="50" height="50" relative="1" as="geometry">
            <mxPoint x="280" y="1180" as="sourcePoint" />
            <mxPoint x="400" y="1686" as="targetPoint" />
            <Array as="points">
              <mxPoint x="280" y="1686" />
            </Array>
          </mxGeometry>
        </mxCell>
        <mxCell id="_BNl1MDUeWxKP-ctqjUL-168" value="" style="endArrow=none;html=1;startSize=0;strokeColor=#FF0000;rounded=0;snapToPoint=1;" edge="1" parent="HeyO3wFch_CCyxyWLXWr-1">
          <mxGeometry width="50" height="50" relative="1" as="geometry">
            <mxPoint x="270" y="1190" as="sourcePoint" />
            <mxPoint x="400" y="1736" as="targetPoint" />
            <Array as="points">
              <mxPoint x="270" y="1736" />
            </Array>
          </mxGeometry>
        </mxCell>
        <mxCell id="_BNl1MDUeWxKP-ctqjUL-169" value="" style="endArrow=none;html=1;startSize=0;strokeColor=#FF0000;rounded=0;snapToPoint=1;" edge="1" parent="HeyO3wFch_CCyxyWLXWr-1">
          <mxGeometry width="50" height="50" relative="1" as="geometry">
            <mxPoint x="260" y="1200" as="sourcePoint" />
            <mxPoint x="400" y="1786" as="targetPoint" />
            <Array as="points">
              <mxPoint x="260" y="1786" />
            </Array>
          </mxGeometry>
        </mxCell>
        <mxCell id="_BNl1MDUeWxKP-ctqjUL-170" value="" style="endArrow=none;html=1;startSize=0;strokeColor=#FF0000;rounded=0;snapToPoint=1;" edge="1" parent="HeyO3wFch_CCyxyWLXWr-1">
          <mxGeometry width="50" height="50" relative="1" as="geometry">
            <mxPoint x="250" y="1210" as="sourcePoint" />
            <mxPoint x="400" y="1836" as="targetPoint" />
            <Array as="points">
              <mxPoint x="250" y="1836" />
            </Array>
          </mxGeometry>
        </mxCell>
        <mxCell id="_BNl1MDUeWxKP-ctqjUL-172" value="" style="endArrow=none;html=1;startSize=0;strokeColor=#FF0000;rounded=0;snapToPoint=1;" edge="1" parent="HeyO3wFch_CCyxyWLXWr-1">
          <mxGeometry width="50" height="50" relative="1" as="geometry">
            <mxPoint x="390" y="1050" as="sourcePoint" />
            <mxPoint x="400" y="987" as="targetPoint" />
            <Array as="points">
              <mxPoint x="390" y="987" />
            </Array>
          </mxGeometry>
        </mxCell>
        <mxCell id="_BNl1MDUeWxKP-ctqjUL-173" value="" style="endArrow=none;html=1;startSize=0;strokeColor=#FF0000;rounded=0;snapToPoint=1;" edge="1" parent="HeyO3wFch_CCyxyWLXWr-1">
          <mxGeometry width="50" height="50" relative="1" as="geometry">
            <mxPoint x="380" y="1040" as="sourcePoint" />
            <mxPoint x="400" y="936" as="targetPoint" />
            <Array as="points">
              <mxPoint x="380" y="936" />
              <mxPoint x="390" y="936" />
            </Array>
          </mxGeometry>
        </mxCell>
        <mxCell id="_BNl1MDUeWxKP-ctqjUL-174" value="" style="endArrow=none;html=1;startSize=0;strokeColor=#FF0000;" edge="1" parent="HeyO3wFch_CCyxyWLXWr-1">
          <mxGeometry width="50" height="50" relative="1" as="geometry">
            <mxPoint x="400" y="1085" as="sourcePoint" />
            <mxPoint x="400" y="1065" as="targetPoint" />
          </mxGeometry>
        </mxCell>
        <mxCell id="_BNl1MDUeWxKP-ctqjUL-175" value="" style="endArrow=none;html=1;startSize=0;strokeColor=#FF0000;" edge="1" parent="HeyO3wFch_CCyxyWLXWr-1">
          <mxGeometry width="50" height="50" relative="1" as="geometry">
            <mxPoint x="400" y="1056" as="sourcePoint" />
            <mxPoint x="400" y="1036" as="targetPoint" />
          </mxGeometry>
        </mxCell>
        <mxCell id="_BNl1MDUeWxKP-ctqjUL-176" value="" style="endArrow=none;html=1;startSize=0;strokeColor=#FF0000;rounded=0;snapToPoint=1;" edge="1" parent="HeyO3wFch_CCyxyWLXWr-1">
          <mxGeometry width="50" height="50" relative="1" as="geometry">
            <mxPoint x="370" y="1030" as="sourcePoint" />
            <mxPoint x="400" y="885" as="targetPoint" />
            <Array as="points">
              <mxPoint x="370" y="885" />
              <mxPoint x="390" y="885" />
            </Array>
          </mxGeometry>
        </mxCell>
        <mxCell id="_BNl1MDUeWxKP-ctqjUL-177" value="" style="endArrow=none;html=1;startSize=0;strokeColor=#FF0000;rounded=0;snapToPoint=1;" edge="1" parent="HeyO3wFch_CCyxyWLXWr-1">
          <mxGeometry width="50" height="50" relative="1" as="geometry">
            <mxPoint x="360" y="1020" as="sourcePoint" />
            <mxPoint x="400" y="835" as="targetPoint" />
            <Array as="points">
              <mxPoint x="360" y="835" />
              <mxPoint x="390" y="835" />
            </Array>
          </mxGeometry>
        </mxCell>
        <mxCell id="_BNl1MDUeWxKP-ctqjUL-178" value="" style="endArrow=none;html=1;startSize=0;strokeColor=#FF0000;rounded=0;snapToPoint=1;" edge="1" parent="HeyO3wFch_CCyxyWLXWr-1">
          <mxGeometry width="50" height="50" relative="1" as="geometry">
            <mxPoint x="350" y="1011" as="sourcePoint" />
            <mxPoint x="400" y="786" as="targetPoint" />
            <Array as="points">
              <mxPoint x="350" y="786" />
              <mxPoint x="390" y="786" />
            </Array>
          </mxGeometry>
        </mxCell>
        <mxCell id="_BNl1MDUeWxKP-ctqjUL-179" value="" style="endArrow=none;html=1;startSize=0;strokeColor=#FF0000;rounded=0;snapToPoint=1;jumpStyle=arc;jumpSize=6;" edge="1" parent="HeyO3wFch_CCyxyWLXWr-1">
          <mxGeometry width="50" height="50" relative="1" as="geometry">
            <mxPoint x="340" y="1000" as="sourcePoint" />
            <mxPoint x="400" y="736" as="targetPoint" />
            <Array as="points">
              <mxPoint x="340" y="736" />
              <mxPoint x="390" y="736" />
            </Array>
          </mxGeometry>
        </mxCell>
        <mxCell id="_BNl1MDUeWxKP-ctqjUL-180" value="" style="endArrow=none;html=1;startSize=0;strokeColor=#FF0000;rounded=0;snapToPoint=1;jumpStyle=arc;jumpSize=10;" edge="1" parent="HeyO3wFch_CCyxyWLXWr-1">
          <mxGeometry width="50" height="50" relative="1" as="geometry">
            <mxPoint x="330" y="990" as="sourcePoint" />
            <mxPoint x="400" y="686" as="targetPoint" />
            <Array as="points">
              <mxPoint x="330" y="686" />
              <mxPoint x="390" y="686" />
            </Array>
          </mxGeometry>
        </mxCell>
        <mxCell id="_BNl1MDUeWxKP-ctqjUL-181" value="" style="endArrow=none;html=1;startSize=0;strokeColor=#FF0000;rounded=0;snapToPoint=1;jumpStyle=arc;jumpSize=10;" edge="1" parent="HeyO3wFch_CCyxyWLXWr-1">
          <mxGeometry width="50" height="50" relative="1" as="geometry">
            <mxPoint x="310" y="980" as="sourcePoint" />
            <mxPoint x="400" y="635" as="targetPoint" />
            <Array as="points">
              <mxPoint x="310" y="635" />
              <mxPoint x="390" y="635" />
            </Array>
          </mxGeometry>
        </mxCell>
        <mxCell id="_BNl1MDUeWxKP-ctqjUL-182" value="" style="endArrow=none;html=1;startSize=0;strokeColor=#FF0000;rounded=0;snapToPoint=1;jumpStyle=arc;jumpSize=10;" edge="1" parent="HeyO3wFch_CCyxyWLXWr-1">
          <mxGeometry width="50" height="50" relative="1" as="geometry">
            <mxPoint x="300" y="971" as="sourcePoint" />
            <mxPoint x="400" y="586" as="targetPoint" />
            <Array as="points">
              <mxPoint x="300" y="586" />
              <mxPoint x="390" y="586" />
            </Array>
          </mxGeometry>
        </mxCell>
        <mxCell id="_BNl1MDUeWxKP-ctqjUL-183" value="" style="endArrow=none;html=1;startSize=0;strokeColor=#FF0000;rounded=0;snapToPoint=1;jumpStyle=arc;jumpSize=10;" edge="1" parent="HeyO3wFch_CCyxyWLXWr-1">
          <mxGeometry width="50" height="50" relative="1" as="geometry">
            <mxPoint x="290" y="960" as="sourcePoint" />
            <mxPoint x="400" y="536" as="targetPoint" />
            <Array as="points">
              <mxPoint x="290" y="536" />
              <mxPoint x="390" y="536" />
            </Array>
          </mxGeometry>
        </mxCell>
        <mxCell id="_BNl1MDUeWxKP-ctqjUL-184" value="" style="endArrow=none;html=1;startSize=0;strokeColor=#FF0000;rounded=0;snapToPoint=1;jumpStyle=arc;jumpSize=10;" edge="1" parent="HeyO3wFch_CCyxyWLXWr-1">
          <mxGeometry width="50" height="50" relative="1" as="geometry">
            <mxPoint x="280" y="949" as="sourcePoint" />
            <mxPoint x="400" y="486" as="targetPoint" />
            <Array as="points">
              <mxPoint x="280" y="486" />
              <mxPoint x="390" y="486" />
            </Array>
          </mxGeometry>
        </mxCell>
        <mxCell id="_BNl1MDUeWxKP-ctqjUL-185" value="" style="endArrow=none;html=1;startSize=0;strokeColor=#FF0000;rounded=0;snapToPoint=1;jumpStyle=arc;jumpSize=10;" edge="1" parent="HeyO3wFch_CCyxyWLXWr-1">
          <mxGeometry width="50" height="50" relative="1" as="geometry">
            <mxPoint x="270" y="940" as="sourcePoint" />
            <mxPoint x="400" y="436" as="targetPoint" />
            <Array as="points">
              <mxPoint x="270" y="436" />
              <mxPoint x="390" y="436" />
            </Array>
          </mxGeometry>
        </mxCell>
        <mxCell id="_BNl1MDUeWxKP-ctqjUL-186" value="" style="endArrow=none;html=1;startSize=0;strokeColor=#FF0000;rounded=0;snapToPoint=1;jumpStyle=arc;jumpSize=10;" edge="1" parent="HeyO3wFch_CCyxyWLXWr-1">
          <mxGeometry width="50" height="50" relative="1" as="geometry">
            <mxPoint x="260" y="930" as="sourcePoint" />
            <mxPoint x="410" y="390" as="targetPoint" />
            <Array as="points">
              <mxPoint x="260" y="600" />
              <mxPoint x="260" y="390" />
              <mxPoint x="310" y="390" />
              <mxPoint x="400" y="390" />
            </Array>
          </mxGeometry>
        </mxCell>
        <mxCell id="_BNl1MDUeWxKP-ctqjUL-187" value="" style="endArrow=classic;html=1;startSize=0;strokeColor=#FF0000;entryX=0;entryY=0.5;entryDx=0;entryDy=0;rounded=0;jumpStyle=arc;endSize=6;jumpSize=10;" edge="1" parent="HeyO3wFch_CCyxyWLXWr-1" target="HeyO3wFch_CCyxyWLXWr-15">
          <mxGeometry width="50" height="50" relative="1" as="geometry">
            <mxPoint x="250" y="920" as="sourcePoint" />
            <mxPoint x="420" y="620" as="targetPoint" />
            <Array as="points">
              <mxPoint x="250" y="380" />
              <mxPoint x="375" y="380" />
            </Array>
          </mxGeometry>
        </mxCell>
        <mxCell id="_BNl1MDUeWxKP-ctqjUL-188" value="" style="shape=trapezoid;perimeter=trapezoidPerimeter;whiteSpace=wrap;html=1;fixedSize=1;startSize=0;direction=north;" vertex="1" parent="HeyO3wFch_CCyxyWLXWr-1">
          <mxGeometry x="102" y="910" width="60" height="310" as="geometry" />
        </mxCell>
        <mxCell id="_BNl1MDUeWxKP-ctqjUL-189" value="" style="endArrow=none;html=1;startSize=0;endSize=6;strokeColor=#FF0000;entryX=0.44;entryY=1.05;entryDx=0;entryDy=0;entryPerimeter=0;" edge="1" parent="HeyO3wFch_CCyxyWLXWr-1">
          <mxGeometry width="50" height="50" relative="1" as="geometry">
            <mxPoint x="400" y="1065" as="sourcePoint" />
            <mxPoint x="163" y="1065" as="targetPoint" />
          </mxGeometry>
        </mxCell>
        <mxCell id="_BNl1MDUeWxKP-ctqjUL-190" value="" style="endArrow=none;html=1;startSize=0;endSize=6;strokeColor=#FF0000;entryX=0.44;entryY=1.05;entryDx=0;entryDy=0;entryPerimeter=0;" edge="1" parent="HeyO3wFch_CCyxyWLXWr-1">
          <mxGeometry width="50" height="50" relative="1" as="geometry">
            <mxPoint x="400" y="1057" as="sourcePoint" />
            <mxPoint x="163" y="1057" as="targetPoint" />
          </mxGeometry>
        </mxCell>
        <mxCell id="_BNl1MDUeWxKP-ctqjUL-191" value="" style="endArrow=none;html=1;startSize=0;endSize=6;strokeColor=#FF0000;" edge="1" parent="HeyO3wFch_CCyxyWLXWr-1">
          <mxGeometry width="50" height="50" relative="1" as="geometry">
            <mxPoint x="390" y="1051" as="sourcePoint" />
            <mxPoint x="163" y="1051" as="targetPoint" />
          </mxGeometry>
        </mxCell>
        <mxCell id="_BNl1MDUeWxKP-ctqjUL-192" value="" style="endArrow=none;html=1;startSize=0;endSize=6;strokeColor=#FF0000;" edge="1" parent="HeyO3wFch_CCyxyWLXWr-1">
          <mxGeometry width="50" height="50" relative="1" as="geometry">
            <mxPoint x="380" y="1040" as="sourcePoint" />
            <mxPoint x="163" y="1040" as="targetPoint" />
          </mxGeometry>
        </mxCell>
        <mxCell id="_BNl1MDUeWxKP-ctqjUL-193" value="" style="endArrow=none;html=1;startSize=0;endSize=6;strokeColor=#FF0000;" edge="1" parent="HeyO3wFch_CCyxyWLXWr-1">
          <mxGeometry width="50" height="50" relative="1" as="geometry">
            <mxPoint x="370" y="1030" as="sourcePoint" />
            <mxPoint x="163" y="1030" as="targetPoint" />
          </mxGeometry>
        </mxCell>
        <mxCell id="_BNl1MDUeWxKP-ctqjUL-194" value="" style="endArrow=none;html=1;startSize=0;endSize=6;strokeColor=#FF0000;" edge="1" parent="HeyO3wFch_CCyxyWLXWr-1">
          <mxGeometry width="50" height="50" relative="1" as="geometry">
            <mxPoint x="360" y="1021" as="sourcePoint" />
            <mxPoint x="163" y="1021" as="targetPoint" />
          </mxGeometry>
        </mxCell>
        <mxCell id="_BNl1MDUeWxKP-ctqjUL-195" value="" style="endArrow=none;html=1;startSize=0;endSize=6;strokeColor=#FF0000;entryX=0.44;entryY=1.05;entryDx=0;entryDy=0;entryPerimeter=0;" edge="1" parent="HeyO3wFch_CCyxyWLXWr-1">
          <mxGeometry width="50" height="50" relative="1" as="geometry">
            <mxPoint x="350" y="1011" as="sourcePoint" />
            <mxPoint x="163" y="1011" as="targetPoint" />
          </mxGeometry>
        </mxCell>
        <mxCell id="_BNl1MDUeWxKP-ctqjUL-196" value="" style="endArrow=none;html=1;startSize=0;endSize=6;strokeColor=#FF0000;entryX=0.44;entryY=1.05;entryDx=0;entryDy=0;entryPerimeter=0;" edge="1" parent="HeyO3wFch_CCyxyWLXWr-1">
          <mxGeometry width="50" height="50" relative="1" as="geometry">
            <mxPoint x="309" y="980" as="sourcePoint" />
            <mxPoint x="163" y="980" as="targetPoint" />
          </mxGeometry>
        </mxCell>
        <mxCell id="_BNl1MDUeWxKP-ctqjUL-197" value="" style="endArrow=none;html=1;startSize=0;endSize=6;strokeColor=#FF0000;entryX=0.44;entryY=1.05;entryDx=0;entryDy=0;entryPerimeter=0;" edge="1" parent="HeyO3wFch_CCyxyWLXWr-1">
          <mxGeometry width="50" height="50" relative="1" as="geometry">
            <mxPoint x="299" y="971" as="sourcePoint" />
            <mxPoint x="163" y="971" as="targetPoint" />
          </mxGeometry>
        </mxCell>
        <mxCell id="_BNl1MDUeWxKP-ctqjUL-198" value="" style="endArrow=none;html=1;startSize=0;endSize=6;strokeColor=#FF0000;entryX=0.44;entryY=1.05;entryDx=0;entryDy=0;entryPerimeter=0;" edge="1" parent="HeyO3wFch_CCyxyWLXWr-1">
          <mxGeometry width="50" height="50" relative="1" as="geometry">
            <mxPoint x="289" y="960" as="sourcePoint" />
            <mxPoint x="163" y="960" as="targetPoint" />
          </mxGeometry>
        </mxCell>
        <mxCell id="_BNl1MDUeWxKP-ctqjUL-199" value="" style="endArrow=none;html=1;startSize=0;endSize=6;strokeColor=#FF0000;entryX=0.44;entryY=1.05;entryDx=0;entryDy=0;entryPerimeter=0;" edge="1" parent="HeyO3wFch_CCyxyWLXWr-1">
          <mxGeometry width="50" height="50" relative="1" as="geometry">
            <mxPoint x="279" y="950" as="sourcePoint" />
            <mxPoint x="163" y="950" as="targetPoint" />
          </mxGeometry>
        </mxCell>
        <mxCell id="_BNl1MDUeWxKP-ctqjUL-200" value="" style="endArrow=none;html=1;startSize=0;endSize=6;strokeColor=#FF0000;entryX=0.44;entryY=1.05;entryDx=0;entryDy=0;entryPerimeter=0;" edge="1" parent="HeyO3wFch_CCyxyWLXWr-1">
          <mxGeometry width="50" height="50" relative="1" as="geometry">
            <mxPoint x="269" y="941" as="sourcePoint" />
            <mxPoint x="163" y="941" as="targetPoint" />
          </mxGeometry>
        </mxCell>
        <mxCell id="_BNl1MDUeWxKP-ctqjUL-201" value="" style="endArrow=none;html=1;startSize=0;endSize=6;strokeColor=#FF0000;entryX=0.44;entryY=1.05;entryDx=0;entryDy=0;entryPerimeter=0;" edge="1" parent="HeyO3wFch_CCyxyWLXWr-1">
          <mxGeometry width="50" height="50" relative="1" as="geometry">
            <mxPoint x="259" y="930" as="sourcePoint" />
            <mxPoint x="163" y="930" as="targetPoint" />
          </mxGeometry>
        </mxCell>
        <mxCell id="_BNl1MDUeWxKP-ctqjUL-202" value="" style="endArrow=none;html=1;startSize=0;endSize=6;strokeColor=#FF0000;entryX=0.44;entryY=1.05;entryDx=0;entryDy=0;entryPerimeter=0;" edge="1" parent="HeyO3wFch_CCyxyWLXWr-1">
          <mxGeometry width="50" height="50" relative="1" as="geometry">
            <mxPoint x="248" y="920" as="sourcePoint" />
            <mxPoint x="163" y="920" as="targetPoint" />
          </mxGeometry>
        </mxCell>
        <mxCell id="_BNl1MDUeWxKP-ctqjUL-203" value="" style="endArrow=none;html=1;startSize=0;endSize=6;strokeColor=#FF0000;entryX=0.44;entryY=1.05;entryDx=0;entryDy=0;entryPerimeter=0;" edge="1" parent="HeyO3wFch_CCyxyWLXWr-1">
          <mxGeometry width="50" height="50" relative="1" as="geometry">
            <mxPoint x="340" y="1000" as="sourcePoint" />
            <mxPoint x="163" y="1000" as="targetPoint" />
          </mxGeometry>
        </mxCell>
        <mxCell id="_BNl1MDUeWxKP-ctqjUL-204" value="" style="endArrow=none;html=1;startSize=0;endSize=6;strokeColor=#FF0000;entryX=0.44;entryY=1.05;entryDx=0;entryDy=0;entryPerimeter=0;" edge="1" parent="HeyO3wFch_CCyxyWLXWr-1">
          <mxGeometry width="50" height="50" relative="1" as="geometry">
            <mxPoint x="330" y="990" as="sourcePoint" />
            <mxPoint x="163" y="990" as="targetPoint" />
          </mxGeometry>
        </mxCell>
        <mxCell id="_BNl1MDUeWxKP-ctqjUL-205" value="" style="endArrow=none;html=1;startSize=0;endSize=6;strokeColor=#FF0000;" edge="1" parent="HeyO3wFch_CCyxyWLXWr-1">
          <mxGeometry width="50" height="50" relative="1" as="geometry">
            <mxPoint x="390" y="1070" as="sourcePoint" />
            <mxPoint x="164" y="1071" as="targetPoint" />
          </mxGeometry>
        </mxCell>
        <mxCell id="_BNl1MDUeWxKP-ctqjUL-206" value="" style="endArrow=none;html=1;startSize=0;endSize=6;strokeColor=#FF0000;" edge="1" parent="HeyO3wFch_CCyxyWLXWr-1">
          <mxGeometry width="50" height="50" relative="1" as="geometry">
            <mxPoint x="380" y="1081" as="sourcePoint" />
            <mxPoint x="163" y="1081" as="targetPoint" />
          </mxGeometry>
        </mxCell>
        <mxCell id="_BNl1MDUeWxKP-ctqjUL-207" value="" style="endArrow=none;html=1;startSize=0;endSize=6;strokeColor=#FF0000;" edge="1" parent="HeyO3wFch_CCyxyWLXWr-1">
          <mxGeometry width="50" height="50" relative="1" as="geometry">
            <mxPoint x="369" y="1090.41" as="sourcePoint" />
            <mxPoint x="162" y="1090.41" as="targetPoint" />
          </mxGeometry>
        </mxCell>
        <mxCell id="_BNl1MDUeWxKP-ctqjUL-208" value="" style="endArrow=none;html=1;startSize=0;endSize=6;strokeColor=#FF0000;" edge="1" parent="HeyO3wFch_CCyxyWLXWr-1">
          <mxGeometry width="50" height="50" relative="1" as="geometry">
            <mxPoint x="359" y="1099" as="sourcePoint" />
            <mxPoint x="162" y="1099" as="targetPoint" />
          </mxGeometry>
        </mxCell>
        <mxCell id="_BNl1MDUeWxKP-ctqjUL-209" value="" style="endArrow=none;html=1;startSize=0;endSize=6;strokeColor=#FF0000;entryX=0.44;entryY=1.05;entryDx=0;entryDy=0;entryPerimeter=0;" edge="1" parent="HeyO3wFch_CCyxyWLXWr-1">
          <mxGeometry width="50" height="50" relative="1" as="geometry">
            <mxPoint x="349" y="1110" as="sourcePoint" />
            <mxPoint x="162" y="1110" as="targetPoint" />
          </mxGeometry>
        </mxCell>
        <mxCell id="_BNl1MDUeWxKP-ctqjUL-210" value="" style="endArrow=none;html=1;startSize=0;endSize=6;strokeColor=#FF0000;" edge="1" parent="HeyO3wFch_CCyxyWLXWr-1">
          <mxGeometry width="50" height="50" relative="1" as="geometry">
            <mxPoint x="340" y="1120" as="sourcePoint" />
            <mxPoint x="160" y="1120" as="targetPoint" />
          </mxGeometry>
        </mxCell>
        <mxCell id="_BNl1MDUeWxKP-ctqjUL-211" value="" style="endArrow=none;html=1;startSize=0;endSize=6;strokeColor=#FF0000;entryX=0.44;entryY=1.05;entryDx=0;entryDy=0;entryPerimeter=0;" edge="1" parent="HeyO3wFch_CCyxyWLXWr-1">
          <mxGeometry width="50" height="50" relative="1" as="geometry">
            <mxPoint x="329" y="1131" as="sourcePoint" />
            <mxPoint x="162" y="1131" as="targetPoint" />
          </mxGeometry>
        </mxCell>
        <mxCell id="_BNl1MDUeWxKP-ctqjUL-212" value="" style="endArrow=none;html=1;startSize=0;endSize=6;strokeColor=#FF0000;" edge="1" parent="HeyO3wFch_CCyxyWLXWr-1">
          <mxGeometry width="50" height="50" relative="1" as="geometry">
            <mxPoint x="320" y="1140" as="sourcePoint" />
            <mxPoint x="162" y="1140" as="targetPoint" />
          </mxGeometry>
        </mxCell>
        <mxCell id="_BNl1MDUeWxKP-ctqjUL-213" value="" style="endArrow=none;html=1;startSize=0;endSize=6;strokeColor=#FF0000;entryX=0.44;entryY=1.05;entryDx=0;entryDy=0;entryPerimeter=0;" edge="1" parent="HeyO3wFch_CCyxyWLXWr-1">
          <mxGeometry width="50" height="50" relative="1" as="geometry">
            <mxPoint x="310" y="1152" as="sourcePoint" />
            <mxPoint x="162" y="1152" as="targetPoint" />
          </mxGeometry>
        </mxCell>
        <mxCell id="_BNl1MDUeWxKP-ctqjUL-214" value="" style="endArrow=none;html=1;startSize=0;endSize=6;strokeColor=#FF0000;entryX=0.44;entryY=1.05;entryDx=0;entryDy=0;entryPerimeter=0;" edge="1" parent="HeyO3wFch_CCyxyWLXWr-1">
          <mxGeometry width="50" height="50" relative="1" as="geometry">
            <mxPoint x="298" y="1160" as="sourcePoint" />
            <mxPoint x="162" y="1160" as="targetPoint" />
          </mxGeometry>
        </mxCell>
        <mxCell id="_BNl1MDUeWxKP-ctqjUL-215" value="" style="endArrow=none;html=1;startSize=0;endSize=6;strokeColor=#FF0000;entryX=0.44;entryY=1.05;entryDx=0;entryDy=0;entryPerimeter=0;" edge="1" parent="HeyO3wFch_CCyxyWLXWr-1">
          <mxGeometry width="50" height="50" relative="1" as="geometry">
            <mxPoint x="278" y="1180" as="sourcePoint" />
            <mxPoint x="162" y="1180" as="targetPoint" />
          </mxGeometry>
        </mxCell>
        <mxCell id="_BNl1MDUeWxKP-ctqjUL-216" value="" style="endArrow=none;html=1;startSize=0;endSize=6;strokeColor=#FF0000;entryX=0.44;entryY=1.05;entryDx=0;entryDy=0;entryPerimeter=0;" edge="1" parent="HeyO3wFch_CCyxyWLXWr-1">
          <mxGeometry width="50" height="50" relative="1" as="geometry">
            <mxPoint x="290" y="1170" as="sourcePoint" />
            <mxPoint x="162" y="1170" as="targetPoint" />
          </mxGeometry>
        </mxCell>
        <mxCell id="_BNl1MDUeWxKP-ctqjUL-217" value="" style="endArrow=none;html=1;startSize=0;endSize=6;strokeColor=#FF0000;entryX=0.44;entryY=1.05;entryDx=0;entryDy=0;entryPerimeter=0;" edge="1" parent="HeyO3wFch_CCyxyWLXWr-1">
          <mxGeometry width="50" height="50" relative="1" as="geometry">
            <mxPoint x="260" y="1200" as="sourcePoint" />
            <mxPoint x="162" y="1199.9999999999998" as="targetPoint" />
          </mxGeometry>
        </mxCell>
        <mxCell id="_BNl1MDUeWxKP-ctqjUL-218" value="" style="endArrow=none;html=1;startSize=0;endSize=6;strokeColor=#FF0000;" edge="1" parent="HeyO3wFch_CCyxyWLXWr-1">
          <mxGeometry width="50" height="50" relative="1" as="geometry">
            <mxPoint x="269" y="1190.41" as="sourcePoint" />
            <mxPoint x="160" y="1190" as="targetPoint" />
          </mxGeometry>
        </mxCell>
        <mxCell id="_BNl1MDUeWxKP-ctqjUL-219" value="" style="endArrow=none;html=1;startSize=0;endSize=6;strokeColor=#FF0000;entryX=0.44;entryY=1.05;entryDx=0;entryDy=0;entryPerimeter=0;" edge="1" parent="HeyO3wFch_CCyxyWLXWr-1">
          <mxGeometry width="50" height="50" relative="1" as="geometry">
            <mxPoint x="250" y="1210" as="sourcePoint" />
            <mxPoint x="162" y="1210" as="targetPoint" />
          </mxGeometry>
        </mxCell>
      </root>
    </mxGraphModel>
  </diagram>
</mxfile>
